<?xml version="1.0" encoding="UTF-8" standalone="no"?>
<!-- Created with Inkscape (http://www.inkscape.org/) -->

<svg
   xmlns:dc="http://purl.org/dc/elements/1.1/"
   xmlns:cc="http://creativecommons.org/ns#"
   xmlns:rdf="http://www.w3.org/1999/02/22-rdf-syntax-ns#"
   xmlns:svg="http://www.w3.org/2000/svg"
   xmlns="http://www.w3.org/2000/svg"
   xmlns:sodipodi="http://sodipodi.sourceforge.net/DTD/sodipodi-0.dtd"
   xmlns:inkscape="http://www.inkscape.org/namespaces/inkscape"
   width="464.20804mm"
   height="182.85876mm"
   viewBox="0 0 1644.8317 647.92475"
   id="svg4574"
   version="1.1"
   inkscape:version="0.91 r13725"
   sodipodi:docname="4TPP.svg">
  <defs
     id="defs4576" />
  <sodipodi:namedview
     id="base"
     pagecolor="#ffffff"
     bordercolor="#666666"
     borderopacity="1.0"
     inkscape:pageopacity="0.0"
     inkscape:pageshadow="2"
     inkscape:zoom="0.49497475"
     inkscape:cx="646.61539"
     inkscape:cy="323.29839"
     inkscape:document-units="px"
     inkscape:current-layer="layer1"
     showgrid="false"
     fit-margin-top="0"
     fit-margin-left="140"
     fit-margin-right="140"
     fit-margin-bottom="0"
     inkscape:window-width="1301"
     inkscape:window-height="744"
     inkscape:window-x="65"
     inkscape:window-y="24"
     inkscape:window-maximized="1" />
  <metadata
     id="metadata4579">
    <rdf:RDF>
      <cc:Work
         rdf:about="">
        <dc:format>image/svg+xml</dc:format>
        <dc:type
           rdf:resource="http://purl.org/dc/dcmitype/StillImage" />
        <dc:title></dc:title>
      </cc:Work>
    </rdf:RDF>
  </metadata>
  <g
     inkscape:label="Layer 1"
     inkscape:groupmode="layer"
     id="layer1"
     transform="translate(517.91613,-129.07304)">
    <path
       d="m 414.97348,181.01433 -260.86,433.6525"
       style="fill:none;stroke:#000000;stroke-width:3;stroke-linecap:butt;stroke-linejoin:miter;stroke-miterlimit:4;stroke-dasharray:none;stroke-opacity:1"
       id="path100"
       inkscape:connector-curvature="0" />
    <path
       d="m 328.01973,342.66058 266.43625,396.865"
       style="fill:none;stroke:#000000;stroke-width:3;stroke-linecap:butt;stroke-linejoin:miter;stroke-miterlimit:4;stroke-dasharray:none;stroke-opacity:1"
       id="path102"
       inkscape:connector-curvature="0" />
    <path
       d="m 487.43973,619.12558 -476.01625,15.61"
       style="fill:none;stroke:#000000;stroke-width:3;stroke-linecap:butt;stroke-linejoin:miter;stroke-miterlimit:4;stroke-dasharray:none;stroke-opacity:1"
       id="path104"
       inkscape:connector-curvature="0" />
    <path
       d="m 190.90098,614.66683 c 0,9.23375 -7.485,16.72375 -16.71875,16.72375 -9.2375,0 -16.72375,-7.49 -16.72375,-16.72375 0,-9.2325 7.48625,-16.72375 16.72375,-16.72375 9.23375,0 16.71875,7.49125 16.71875,16.72375 z"
       style="fill:#000000;fill-opacity:1;fill-rule:nonzero;stroke:none"
       id="path106"
       inkscape:connector-curvature="0" />
    <path
       d="m 270.05098,483.12433 c 0,9.23375 -7.485,16.71875 -16.71875,16.71875 -9.2375,0 -16.7225,-7.485 -16.7225,-16.71875 0,-9.23875 7.485,-16.72375 16.7225,-16.72375 9.23375,0 16.71875,7.485 16.71875,16.72375 z"
       style="fill:#000000;fill-opacity:1;fill-rule:nonzero;stroke:none"
       id="path108"
       inkscape:connector-curvature="0" />
    <path
       d="m 339.16723,368.30058 c 0,9.2325 -7.485,16.71875 -16.71875,16.71875 -9.2375,0 -16.72375,-7.48625 -16.72375,-16.71875 0,-9.23875 7.48625,-16.72375 16.72375,-16.72375 9.23375,0 16.71875,7.485 16.71875,16.72375 z"
       style="fill:#000000;fill-opacity:1;fill-rule:nonzero;stroke:none"
       id="path110"
       inkscape:connector-curvature="0" />
    <path
       d="m 343.63098,613.55433 c 0,9.2325 -7.49,16.71875 -16.72375,16.71875 -9.23375,0 -16.72375,-7.48625 -16.72375,-16.71875 0,-9.23875 7.49,-16.72375 16.72375,-16.72375 9.23375,0 16.72375,7.485 16.72375,16.72375 z"
       style="fill:#000000;fill-opacity:1;fill-rule:nonzero;stroke:none"
       id="path112"
       inkscape:connector-curvature="0" />
    <path
       d="m 493.01098,600.17558 c 0,9.2325 -7.48625,16.7225 -16.71875,16.7225 -9.23875,0 -16.72375,-7.49 -16.72375,-16.7225 0,-9.23375 7.485,-16.72375 16.72375,-16.72375 9.2325,0 16.71875,7.49 16.71875,16.72375 z"
       style="fill:#000000;fill-opacity:1;fill-rule:nonzero;stroke:none"
       id="path114"
       inkscape:connector-curvature="0" />
    <path
       d="m 428.35223,482.00558 c 0,9.23875 -7.485,16.72375 -16.71875,16.72375 -9.23875,0 -16.72375,-7.485 -16.72375,-16.72375 0,-9.2325 7.485,-16.71875 16.72375,-16.71875 9.23375,0 16.71875,7.48625 16.71875,16.71875 z"
       style="fill:#000000;fill-opacity:1;fill-rule:nonzero;stroke:none"
       id="path116"
       inkscape:connector-curvature="0" />
    <path
       d="m 421.66223,185.47308 c 71.45125,148.6225 37.74,253.2275 6.69,309.9125 l -89.18,133.77375 -84.18375,112.66125"
       style="fill:none;stroke:#ff0000;stroke-width:3;stroke-linecap:butt;stroke-linejoin:miter;stroke-miterlimit:4;stroke-dasharray:none;stroke-opacity:1"
       id="path118"
       inkscape:connector-curvature="0" />
    <path
       d="M 8.5572303,632.76308 C 96.36473,493.17808 202.86848,466.05433 267.38598,462.17683 l 160.7175,4.32125 161.1125,2.57875"
       style="fill:none;stroke:#ff0000;stroke-width:3;stroke-linecap:butt;stroke-linejoin:miter;stroke-miterlimit:4;stroke-dasharray:none;stroke-opacity:1"
       id="path120"
       inkscape:connector-curvature="0" />
    <path
       d="m 597.51723,746.03433 c -164.8925,1.9575 -245.45375,-72.7975 -283.70625,-124.8925 L 230.25223,483.78308 161.97473,360.29183"
       style="fill:none;stroke:#ff0000;stroke-width:3;stroke-linecap:butt;stroke-linejoin:miter;stroke-miterlimit:4;stroke-dasharray:none;stroke-opacity:1"
       id="path122"
       inkscape:connector-curvature="0" />
    <path
       d="m 605.60348,736.18058 c 0,9.23375 -7.485,16.71875 -16.71875,16.71875 -9.23875,0 -16.72375,-7.485 -16.72375,-16.71875 0,-9.2375 7.485,-16.72375 16.72375,-16.72375 9.23375,0 16.71875,7.48625 16.71875,16.72375 z"
       style="fill:#000000;fill-opacity:1;fill-rule:nonzero;stroke:none"
       id="path124"
       inkscape:connector-curvature="0" />
    <path
       d="m 438.38598,179.89683 c 0,9.23875 -7.485,16.72375 -16.72375,16.72375 -9.2325,0 -16.7175,-7.485 -16.7175,-16.72375 0,-9.23375 7.485,-16.71875 16.7175,-16.71875 9.23875,0 16.72375,7.485 16.72375,16.71875 z"
       style="fill:#000000;fill-opacity:1;fill-rule:nonzero;stroke:none"
       id="path126"
       inkscape:connector-curvature="0" />
    <path
       d="m 29.26098,632.50433 c 0,9.23375 -7.49125,16.72375 -16.72375,16.72375 -9.2337497,0 -16.7237497,-7.49 -16.7237497,-16.72375 0,-9.23375 7.49,-16.72375 16.7237497,-16.72375 9.2325,0 16.72375,7.49 16.72375,16.72375 z"
       style="fill:#000000;fill-opacity:1;fill-rule:nonzero;stroke:none"
       id="path128"
       inkscape:connector-curvature="0" />
    <path
       d="m 491.47223,615.69308 c 0,0 100.615,-105.65 100.89875,-145.04 0.25375,-34.82875 -130.79125,-306.7325 -170.26875,-309.00375 -39.365,-2.27 -260.1275,192.33875 -260.1275,192.33875"
       style="fill:none;stroke:#0000ff;stroke-width:4;stroke-linecap:butt;stroke-linejoin:miter;stroke-miterlimit:4;stroke-dasharray:none;stroke-opacity:1"
       id="path130"
       inkscape:connector-curvature="0" />
    <path
       d="m 178.69473,358.71558 c 0,9.2375 -7.48625,16.7225 -16.72,16.7225 -9.2375,0 -16.7225,-7.485 -16.7225,-16.7225 0,-9.23375 7.485,-16.71875 16.7225,-16.71875 9.23375,0 16.72,7.485 16.72,16.71875 z"
       style="fill:#000000;fill-opacity:1;fill-rule:nonzero;stroke:none"
       id="path132"
       inkscape:connector-curvature="0" />
    <path
       d="m 605.93973,465.92183 c 0,9.23375 -7.485,16.72375 -16.72375,16.72375 -9.2325,0 -16.71875,-7.49 -16.71875,-16.72375 0,-9.23375 7.48625,-16.72375 16.71875,-16.72375 9.23875,0 16.72375,7.49 16.72375,16.72375 z"
       style="fill:#000000;fill-opacity:1;fill-rule:nonzero;stroke:none"
       id="path134"
       inkscape:connector-curvature="0" />
    <path
       d="m 333.69848,351.12183 c 0,0 -152.5775,-28.34 -185.99125,-7.475 -29.535,18.4475 -173.13375,262.1725 -153.9012497,296.71875 19.1799997,34.4525 252.9062497,113.4275 252.9062497,113.4275"
       style="fill:none;stroke:#00ff00;stroke-width:4;stroke-linecap:butt;stroke-linejoin:miter;stroke-miterlimit:4;stroke-dasharray:none;stroke-opacity:1"
       id="path136"
       inkscape:connector-curvature="0" />
    <path
       d="m 151.29223,623.42183 c 0,0 66.67,106.09875 100.22375,126.73375 29.66375,18.25125 336.44125,35.88875 358.82375,3.29625 22.32375,-32.505 -1.48,-295.3325 -1.48,-295.3325"
       style="fill:none;stroke:#ff00ff;stroke-width:4;stroke-linecap:butt;stroke-linejoin:miter;stroke-miterlimit:4;stroke-dasharray:none;stroke-opacity:1"
       id="path138"
       inkscape:connector-curvature="0" />
    <path
       d="m 273.28848,737.08933 c 0,9.23375 -7.485,16.72375 -16.72375,16.72375 -9.2325,0 -16.71875,-7.49 -16.71875,-16.72375 0,-9.23375 7.48625,-16.72375 16.71875,-16.72375 9.23875,0 16.72375,7.49 16.72375,16.72375 z"
       style="fill:#000000;fill-opacity:1;fill-rule:nonzero;stroke:none"
       id="path140"
       inkscape:connector-curvature="0" />
    <text
       y="601.50555"
       x="130.44232"
       style="font-style:normal;font-variant:normal;font-weight:normal;font-stretch:normal;font-size:22.5px;font-family:'Latin Modern Math';-inkscape-font-specification:'Latin Modern Math';writing-mode:lr-tb;fill:#000000;fill-opacity:1;fill-rule:nonzero;stroke:none"
       id="text142">
      <tspan
         x="130.44232"
         y="601.50555"
         id="tspan144"
         style="font-style:normal;font-variant:normal;font-weight:normal;font-stretch:normal;font-family:'Latin Modern Math';-inkscape-font-specification:'Latin Modern Math'">1</tspan>
      <tspan
         x="341.70029"
         y="335.06836"
         id="tspan146"
         style="font-style:normal;font-variant:normal;font-weight:normal;font-stretch:normal;font-family:'Latin Modern Math';-inkscape-font-specification:'Latin Modern Math'">2</tspan>
      <tspan
         x="494.62582"
         y="585.74011"
         id="tspan148"
         style="font-style:normal;font-variant:normal;font-weight:normal;font-stretch:normal;font-family:'Latin Modern Math';-inkscape-font-specification:'Latin Modern Math'">3</tspan>
      <tspan
         x="229.76509"
         y="458.0394"
         id="tspan150"
         style="font-style:normal;font-variant:normal;font-weight:normal;font-stretch:normal;font-family:'Latin Modern Math';-inkscape-font-specification:'Latin Modern Math'">3</tspan>
      <tspan
         x="415.79828"
         y="451.73325"
         id="tspan152"
         style="font-style:normal;font-variant:normal;font-weight:normal;font-stretch:normal;font-family:'Latin Modern Math';-inkscape-font-specification:'Latin Modern Math'">1</tspan>
      <tspan
         x="327.51138"
         y="587.31665"
         id="tspan154"
         style="font-style:normal;font-variant:normal;font-weight:normal;font-stretch:normal;font-family:'Latin Modern Math';-inkscape-font-specification:'Latin Modern Math'">2</tspan>
      <tspan
         x="-22.483133"
         y="647.22565"
         id="tspan156"
         style="font-style:normal;font-variant:normal;font-weight:normal;font-stretch:normal;font-family:'Latin Modern Math';-inkscape-font-specification:'Latin Modern Math'">4</tspan>
      <tspan
         x="420.52792"
         y="144.30556"
         id="tspan158"
         style="font-style:normal;font-variant:normal;font-weight:normal;font-stretch:normal;font-family:'Latin Modern Math';-inkscape-font-specification:'Latin Modern Math'">4</tspan>
      <tspan
         x="619.17334"
         y="757.58423"
         id="tspan160"
         style="font-style:normal;font-variant:normal;font-weight:normal;font-stretch:normal;font-family:'Latin Modern Math';-inkscape-font-specification:'Latin Modern Math'">4</tspan>
      <tspan
         x="620.75006"
         y="461.19247"
         id="tspan162"
         style="font-style:normal;font-variant:normal;font-weight:normal;font-stretch:normal;font-family:'Latin Modern Math';-inkscape-font-specification:'Latin Modern Math'">2</tspan>
      <tspan
         x="135.17198"
         y="317.72629"
         id="tspan164"
         style="font-style:normal;font-variant:normal;font-weight:normal;font-stretch:normal;font-family:'Latin Modern Math';-inkscape-font-specification:'Latin Modern Math'">1</tspan>
      <tspan
         x="243.95412"
         y="776.50281"
         id="tspan166"
         style="font-style:normal;font-variant:normal;font-weight:normal;font-stretch:normal;font-family:'Latin Modern Math';-inkscape-font-specification:'Latin Modern Math'">3</tspan>
    </text>
  </g>
</svg>
