<?xml version="1.0" encoding="UTF-8" standalone="no"?>
<svg
   xmlns:dc="http://purl.org/dc/elements/1.1/"
   xmlns:cc="http://creativecommons.org/ns#"
   xmlns:rdf="http://www.w3.org/1999/02/22-rdf-syntax-ns#"
   xmlns:svg="http://www.w3.org/2000/svg"
   xmlns="http://www.w3.org/2000/svg"
   viewBox="0 0 1415.52 440.46667"
   height="440.46667"
   width="1415.52"
   xml:space="preserve"
   id="svg2"
   version="1.1"><metadata
     id="metadata8"><rdf:RDF><cc:Work
         rdf:about=""><dc:format>image/svg+xml</dc:format><dc:type
           rdf:resource="http://purl.org/dc/dcmitype/StillImage" /><dc:title></dc:title></cc:Work></rdf:RDF></metadata><defs
     id="defs6"><clipPath
       id="clipPath20"
       clipPathUnits="userSpaceOnUse"><path
         id="path18"
         d="M 0,0 H 10616 V 3303.54 H 0 Z" /></clipPath></defs><g
     transform="matrix(1.3333333,0,0,-1.3333333,0,440.46667)"
     id="g10"><g
       transform="scale(0.1)"
       id="g12"><g
         id="g14"><g
           clip-path="url(#clipPath20)"
           id="g16"><path
             id="path22"
             style="fill:#231f20;fill-opacity:1;fill-rule:nonzero;stroke:none"
             d="m 3610.89,2487.23 c 0,130.21 -48.17,222.77 -177.95,259.97 -50.22,14.4 -84.79,17.51 -173.15,17.51 h -99.97 V 2149.23 H 3297 c 195.3,0 313.89,170.6 313.89,338" /><path
             id="path24"
             style="fill:#231f20;fill-opacity:1;fill-rule:nonzero;stroke:none"
             d="m 3285.37,2081.81 h -125.55 v -439.97 c 0,-179.03 30.23,-223.21 151.13,-223.21 h 67.43 c 111.6,0 174.38,25.58 227.85,93.01 39.53,51.15 62.78,123.22 62.78,199.95 0,192.98 -148.8,370.22 -383.64,370.22" /><path
             id="path26"
             style="fill:#231f20;fill-opacity:1;fill-rule:nonzero;stroke:none"
             d="M 2302.72,1877.01 H 646.395 V 2697.2 H 2302.72 Z m -1.02,-76.27 v -2.38 l -0.13,-2.36 c -5.39,-97.09 -10.98,-189.46 -22.2,-278.23 h -281.23 v 312.61 h 303.92 z M 1998.14,896.699 v 307.391 h 203.81 C 2158.69,1098.66 2094.67,997 1998.14,896.699 Z m -293.86,308.231 v 312.65 h 293.77 v -312.65 z m 0,-543.461 V 891.07 h 288.37 C 1917.61,814.121 1823.3,737.941 1704.28,661.469 Z m -46.24,-28.18 -184.2,-103.309 -182.77,103.7 v 1196.36 h 366.97 z M 1244.72,1204.93 H 950.953 v 312.65 h 293.767 z m 0,-543.461 C 1125.7,737.941 1031.4,814.121 956.359,891.07 H 1244.72 Z M 950.863,1517.77 H 669.637 C 658.418,1606.54 652.82,1698.91 647.43,1796 l -0.129,2.36 v 2.38 l -0.246,29.64 h 303.808 z m 0,-621.071 C 854.328,997 790.313,1098.66 747.055,1204.09 H 950.863 Z M 1474.65,2740.34 H 602.598 L 601.16,1821.2 c 31.371,-563.81 58.215,-922.059 873.4,-1345.309 815.18,423.25 842.02,781.499 873.39,1345.309 l -1.44,919.14 h -871.86" /><path
             id="path28"
             style="fill:#231f20;fill-opacity:1;fill-rule:nonzero;stroke:none"
             d="m 6791.61,878.172 c -87.55,0 -137.3,-70.902 -137.3,-170.32 0,-100.301 49.56,-178.114 133.84,-178.114 86.24,0 134.01,72.621 134.01,172.051 0,102.02 -44.96,176.383 -130.55,176.383" /><path
             id="path30"
             style="fill:#231f20;fill-opacity:1;fill-rule:nonzero;stroke:none"
             d="m 4823.91,867.379 -31.96,-0.219 -0.4,-157.281 42.77,0.223 c 23.97,0 37.84,3.949 51.84,16.378 17.29,15.372 25.93,34.961 25.93,59.168 0,49.571 -33.42,80.582 -88.18,81.731" /><path
             id="path32"
             style="fill:#231f20;fill-opacity:1;fill-rule:nonzero;stroke:none"
             d="m 1320.75,2530.61 c 4.23,0.57 14.5,1.08 37.48,-1.46 10.39,-1.17 17.88,-4.87 22.28,-11.01 4.97,-6.93 5.14,-15.69 4.75,-20.52 -25.46,-6.41 -44.28,-4.93 -54.57,4.28 -9.53,8.55 -10.23,22.17 -9.94,28.71 z m 132,-11.42 c 4.58,6.79 12.86,10.89 24.62,12.19 25.75,2.89 36.06,1.8 39.74,1.01 0.42,-6.44 0.13,-21.66 -10.44,-31.2 -10.91,-9.81 -30.88,-11.37 -57.91,-4.5 -0.72,5.04 -1.2,14.81 3.99,22.5 z m -180.73,37.46 c -9.54,-23.63 -12.58,-47.37 -9.3,-72.39 2.49,-19.76 11.02,-34.93 25.38,-45.11 28.11,-19.91 69.15,-13.83 85.48,-10.3 11.11,2.37 20.1,1.2 26.69,-3.49 9.89,-7.02 11.66,-20.04 11.68,-20.13 l 4.35,-36.68 c -1.6,2.44 -3.42,4.82 -5.73,6.93 -6.66,6.07 -15.21,9.2 -25.47,9.32 l -0.08,0.27 -5.28,-0.47 c -0.19,-0.01 -0.38,-0.03 -0.57,-0.05 l 0.28,-2.84 -0.64,2.59 c -8.79,-2.15 -93.07,-10.99 -104.96,25.1 l -0.76,34.9 -11.2,-19.98 c -0.52,-0.91 -12.53,-22.66 -15.69,-56.79 -2.89,-31.37 1.49,-79.58 38.87,-131.16 56.77,-78.34 88.04,-121.49 96.72,-186.36 2.55,-18.75 0.75,-31.37 -5.53,-38.55 -8.46,-9.69 -25.84,-9.92 -44.25,-9.68 -6.33,0.07 -12.7,0 -18.94,-0.37 -11.98,-0.67 -21.6,-5.11 -28.59,-13.23 -14.03,-16.28 -11.86,-41.41 -11.75,-42.48 l 1.23,-13.17 9.39,9.33 c 2.36,2.33 14.98,3.56 26.71,2.62 74.34,-22.66 92.29,-0.33 108,31.24 6.68,13.29 19.3,22.5 31.5,31.41 13.11,9.57 25.5,18.61 31.03,32.42 4.77,11.94 -9.28,21.46 -21.68,29.85 -5.12,3.47 -10.42,7.06 -12.44,9.56 -0.03,0.03 -0.06,0.07 -0.09,0.11 0.73,0.18 2.15,-0.16 4.17,-0.89 7.75,-2.86 15.46,-1.32 20.66,4.12 4.9,5.11 6.44,12.7 3.81,18.95 -3.98,9.17 -13.84,21.01 -20.68,26.69 -1.74,1.45 -3.25,4.37 -3.8,6.34 0.91,-0.18 2.25,-0.55 4.12,-1.32 12.48,-5.14 21.76,-5.47 28.39,-1.06 5.03,3.37 7.46,8.7 8.63,14.58 6.75,-11.63 16.07,-33.66 23.16,-73.33 6.03,-33.83 9.29,-54.92 3.72,-62.38 -4.17,-5.58 -15.94,-6.89 -35.44,-9.07 l -2.86,-0.32 c -16.35,-1.81 -28.23,-8.2 -35.32,-19 -12.32,-18.77 -4.86,-43.6 -4.54,-44.65 l 6.62,-21.44 5.42,21.79 c 1.47,5.92 8.91,10.36 15.54,9.81 3.46,-0.42 6.53,-0.57 10.32,-0.73 7.24,-0.33 17.17,-0.78 38.56,-3.74 19.76,-2.73 37.87,0.42 57.03,3.72 13.23,2.27 26.9,4.64 41.76,5.12 18.94,0.58 33.43,-1.91 42.98,-3.58 10.22,-1.77 19.05,-3.31 20.88,5.23 2.13,10.67 0.3,19.95 -5.45,27.57 -9.37,12.44 -28.7,19.7 -59.11,22.2 -14.75,1.15 -24.34,7.97 -25.88,13.8 -0.78,2.96 0.68,5.71 4.29,8.14 10.44,6.89 16.6,12.12 17.22,18.48 0.55,5.58 -3.45,9.52 -5.13,11.17 -2.47,2.46 -5.02,4.86 -7.47,7.14 -4.7,4.4 -11.8,11.04 -12.42,12.62 0.47,1.01 0.82,1.47 0.83,1.59 0.45,-0.02 1.38,-0.2 2.03,-0.34 3.66,-0.73 11.29,-2.32 16.77,6.89 6.5,10.66 -1.07,23.3 -8.33,31.84 14.5,1.18 22.9,-1.05 28.27,-17.17 2.46,-7.34 4.31,-13.16 5.9,-18.15 4.14,-13 6.64,-20.84 13.28,-34.9 11.17,-23.34 22.45,-22.31 46.89,-17.88 41.71,7.61 72.03,7.72 72.33,7.72 l 8.89,0.01 -3.01,8.36 c -40.35,111.96 -53.42,114.15 -58.34,114.97 -1.72,0.31 -3.23,0.06 -4.46,-0.46 -166.3,-20.12 -226.23,83.74 -235.65,102.58 l 4.25,7.73 c 103.34,-88.99 217.15,-67.39 222.02,-66.39 l 6.54,1.3 -1.74,6.45 c -43.18,159.91 -91.43,183.08 -117.34,195.52 -3.61,1.73 -6.72,3.22 -9.02,4.76 l -5.74,3.84 -3.25,-6.08 c -19.05,-35.66 -80.06,-26.86 -103.02,-23.53 -2.74,0.39 -4.93,0.7 -6.49,0.86 -12.93,1.18 -23.52,-1.85 -31.44,-9.07 -2.49,-2.28 -4.42,-4.84 -6.1,-7.46 l 4.73,37.18 c 0.01,0.13 1.77,13.15 11.66,20.18 6.56,4.65 15.51,5.84 26.6,3.47 16.34,-3.53 57.4,-9.61 85.48,10.29 14.37,10.17 22.92,25.34 25.43,45.11 3.18,24.97 0.05,49.3 -9.31,72.41 10.17,8.22 33.86,32.32 27.42,74.58 l -1.16,7.59 -7.19,-2.67 c -0.42,-0.15 -40.56,-15.06 -63.97,-25.18 -9.06,3.77 -40.25,14.49 -101.17,14.49 -60.96,0 -92.19,-10.71 -101.26,-14.47 -23.2,10.09 -62.18,24.53 -63.89,25.16 l -7.19,2.67 -1.15,-7.58 c -6.46,-42.27 17.21,-66.39 27.36,-74.6" /><path
             id="path34"
             style="fill:#231f20;fill-opacity:1;fill-rule:nonzero;stroke:none"
             d="m 1474.72,587.059 c -0.7,0 -1.27,0.121 -1.95,0.14 -0.68,-0.019 -1.26,-0.14 -1.95,-0.14 h 3.9" /><path
             id="path36"
             style="fill:#231f20;fill-opacity:1;fill-rule:nonzero;stroke:none"
             d="m 1412.91,832.648 c 0,-3.16 0.7,-12.039 10.88,-13.539 -0.9,-28.558 -2.62,-103.578 2.09,-156.16 h -17.33 c 0,0 -1.79,-74.238 64.22,-75.75 66.01,1.512 64.22,75.75 64.22,75.75 h -17.91 c 4.7,52.582 2.99,127.602 2.09,156.16 10.17,1.5 10.88,10.379 10.88,13.539 v 17.844 h 0.53 l 82.68,19.348 v 56.301 l -51.01,-15.84 -34.61,-1.981 v 628.28 c 0,0 -4.05,119.57 -22.71,197.76 -9.4,-48.37 -20.73,-111.45 -20.73,-198.89 V 905.84 l -13.42,-0.77 -23.74,1.399 V 1536.6 c 3.43,122.62 33.16,220.24 49.12,244.65 -7.28,21.16 -9.06,19.95 -19.56,19.95 -23.9,0 -58.84,-216.07 -58.84,-264.6 V 908.191 l -35.84,2.11 -51.01,15.84 V 869.84 l 80,-18.719 v -18.473" /><path
             id="path38"
             style="fill:#231f20;fill-opacity:1;fill-rule:nonzero;stroke:none"
             d="m 6805.73,2143.91 c -83.69,0 -148.8,-37.2 -211.57,-116.25 v -416.19 c 0,-183.68 20.92,-213.91 139.5,-213.91 216.23,0 344.11,146.48 344.11,392.94 0,202.29 -116.26,353.41 -272.04,353.41" /><path
             id="path40"
             style="fill:#231f20;fill-opacity:1;fill-rule:nonzero;stroke:none"
             d="m 1950.19,2214.35 c 33.13,-19.35 37.78,-41.64 35.86,-56.93 -2.73,-21.63 -20.88,-42.53 -42.21,-48.62 l -1.77,-0.5 -1.21,-1.38 c -0.64,-0.72 -15.51,-17.9 -13.29,-37.96 l 0.62,-5.56 h 190.54 l 0.62,5.56 c 2.22,20.06 -12.64,37.24 -13.27,37.95 l -1.22,1.39 -1.77,0.5 c -21.36,6.1 -39.52,27.02 -42.25,48.66 -1.92,15.27 2.75,37.55 35.88,56.89 73.8,42.98 61.81,79.36 61.26,80.89 l -1.48,4.14 h -86.28 c -37.02,0 -40.55,12.58 -40.58,12.58 -0.01,0 -0.01,-0.01 -0.01,-0.01 l -0.9,8.35 c 4.49,4.05 11.79,13.84 26.16,35.93 29.8,45.66 -32.34,147.84 -35,152.17 l -13.24,21.55 1.68,-25.24 c 2.43,-36.39 -22.93,-79.89 -22.84,-79.87 -33.67,-41.03 18.44,-91.63 30.86,-102.71 l -0.15,-2.04 1.8,-0.66 -0.75,-7.18 c -0.03,-0.13 -3.29,-12.87 -40.64,-12.87 h -86.18 l -1.49,-4.14 c -0.55,-1.52 -12.59,-37.91 61.25,-80.89" /><path
             id="path42"
             style="fill:#231f20;fill-opacity:1;fill-rule:nonzero;stroke:none"
             d="m 852.398,2214.35 c 33.125,-19.35 37.782,-41.64 35.852,-56.93 -2.73,-21.63 -20.875,-42.53 -42.211,-48.62 l -1.769,-0.5 -1.211,-1.39 c -0.633,-0.71 -15.504,-17.89 -13.286,-37.95 l 0.614,-5.56 h 190.553 l 0.62,5.56 c 2.21,20.06 -12.65,37.24 -13.28,37.95 l -1.22,1.39 -1.76,0.5 c -21.366,6.1 -39.53,27.02 -42.257,48.66 -1.922,15.27 2.746,37.55 35.875,56.89 73.802,42.98 61.812,79.36 61.272,80.89 l -1.48,4.14 h -86.284 c -37.024,0 -40.559,12.58 -40.594,12.58 l -0.898,8.34 c 4.488,4.05 11.781,13.84 26.152,35.93 29.812,45.66 -32.328,147.84 -34.988,152.17 l -13.243,21.54 1.684,-25.23 c 2.426,-36.39 -22.937,-79.89 -22.851,-79.87 -33.657,-41.03 18.449,-91.63 30.863,-102.71 l -0.149,-2.04 1.801,-0.66 -0.754,-7.18 c -0.027,-0.13 -3.289,-12.87 -40.633,-12.87 h -86.187 l -1.488,-4.14 c -0.547,-1.52 -12.59,-37.91 61.257,-80.89" /><path
             id="path44"
             style="fill:#231f20;fill-opacity:1;fill-rule:nonzero;stroke:none"
             d="m 9102.64,845.461 c -24.75,17.668 -51.54,22.449 -100.59,22.449 l -50.7,-0.129 V 602.742 c 0,-49.871 6.32,-64.012 43.23,-64.012 H 9022 c 55.37,0 86.53,14.29 113.89,47.391 24.18,29.258 34.08,62.391 34.08,111.379 0,67.461 -25.55,118.121 -67.33,147.961" /><path
             id="path46"
             style="fill:#231f20;fill-opacity:1;fill-rule:nonzero;stroke:none"
             d="m 8148.32,878.172 c -87.55,0 -137.3,-70.902 -137.3,-170.32 0,-100.301 49.56,-178.114 133.84,-178.114 86.24,0 134.01,72.621 134.01,172.051 0,102.02 -44.96,176.383 -130.55,176.383" /><path
             id="path48"
             style="fill:#231f20;fill-opacity:1;fill-rule:nonzero;stroke:none"
             d="m 10138,869.93 h -5.7 c -29.9,0 -41.3,-9.68 -41.3,-50.399 V 513.52 h -18.5 l -250.12,309.109 h -1.28 V 594.91 c 0,-47.09 10.88,-58.269 43.34,-58.269 h 5.08 V 515.43 h -121.11 v 20.519 h 5.73 c 28,0 39.46,16.371 39.46,60.922 v 207.68 c 0,46.461 -9.96,62.371 -54.1,66.078 v 19.812 h 101.85 l 220.15,-275.5 h 1.3 V 802.98 c 0,56.641 -9.6,66.95 -39.5,66.95 h -5.7 v 20.511 H 10138 Z M 9502.23,506.539 c -111.72,0 -199.27,87.57 -199.27,198.031 0,111.11 86.89,195.418 201.89,195.418 109.77,0 196.01,-86.269 196.01,-194.769 0,-111.11 -87.55,-198.68 -198.63,-198.68 z m -376.58,25.563 c -28.63,-10.813 -62.06,-16.661 -102.78,-16.661 h -172.26 v 21.207 h 5.83 c 26.1,0 35.53,13.082 35.53,54.442 v 227.859 c 0,41.371 -10.81,50.992 -36.91,50.992 h -4.45 v 20.508 h 152.53 c 46.46,0 63.11,-0.578 86.65,-6.308 14.64,-3.821 29.28,-8.911 43.28,-15.903 61.73,-31.828 104.11,-98.328 104.11,-169.609 0,-76.348 -42.17,-141.078 -111.53,-166.527 z M 8794.27,869.93 h -5.73 c -29.91,0 -41.36,-9.68 -41.36,-50.399 V 513.52 h -18.43 L 8478.6,822.629 h -1.29 V 594.91 c 0,-47.09 10.88,-58.269 43.34,-58.269 h 5.08 V 515.43 h -121.1 v 20.519 h 5.73 c 28,0 39.45,16.371 39.45,60.922 v 207.68 c 0,46.461 -9.96,62.371 -54.09,66.078 v 19.812 h 101.85 l 220.2,-275.5 h 1.26 V 802.98 c 0,56.641 -9.59,66.95 -39.5,66.95 h -5.73 v 20.511 h 120.47 z M 8146.93,506.539 c -111.72,0 -199.28,87.57 -199.28,198.031 0,111.11 86.89,195.418 201.89,195.418 109.77,0 196.02,-86.269 196.02,-194.769 0,-111.11 -87.56,-198.68 -198.63,-198.68 z m -264.11,8.902 h -273.08 v 21.2 h 3.82 c 28.62,0 37.53,13.73 37.53,65.91 v 204.258 l 0.65,16.543 c 0,36.91 -10.83,46.589 -36.28,46.589 h -5.72 v 20.5 h 140.83 v -20.5 h -3.82 c -28.64,0 -37.65,-9.882 -37.65,-62.703 l 0.11,-205.968 v -22.899 c -0.11,-28.801 2.15,-34.09 30.78,-35.359 l 21,-0.633 h 57.91 c 44.54,0 51.2,9.543 67.76,62.359 h 22.53 z M 7380.13,1767.25 c 0,246.46 183.68,439.44 416.19,439.44 186.01,0 355.74,-148.8 353.41,-311.56 v -27.9 h -606.84 c 6.97,-165.08 25.57,-239.48 86.02,-325.51 60.46,-90.68 155.79,-148.8 244.14,-148.8 95.33,0 181.36,55.8 290.64,183.67 v -60.45 c -99.99,-125.55 -195.31,-172.06 -339.47,-172.06 -258.08,0 -444.09,176.71 -444.09,423.17 z M 7215.1,722.461 c 40.73,0 46.17,6.359 49.99,40.719 h 19.82 V 651.039 h -19.82 c -4.45,35.633 -9.26,40.672 -50.63,40.672 h -75.27 V 591.09 c 0,-41.36 10.18,-54.449 36.27,-54.449 h 5.09 v -21.2 h -142.1 v 21.2 h 5.08 c 26.1,0 36.28,19.32 36.28,60.679 v 220.942 c 0,41.367 -9.49,51.679 -35.59,51.679 h -5.77 v 20.5 h 259.83 l 3.18,-74.589 h -19.82 c -8.28,42 -15.63,51.539 -55.09,51.539 h -87.36 v -144.93 z m -537.24,633.249 c -69.76,0 -130.21,4.66 -241.81,25.58 v 1234.62 c -2.33,139.5 -11.62,148.8 -146.48,151.13 v 39.52 l 304.59,23.25 v -741.7 c 69.74,74.4 174.38,118.58 276.68,118.58 213.91,0 381.31,-176.7 381.31,-402.23 0,-158.11 -88.35,-302.27 -234.83,-378.99 -93,-48.84 -197.64,-69.76 -339.46,-69.76 z m 112.36,-849.171 c -111.72,0 -199.28,87.57 -199.28,198.031 0,111.11 86.9,195.418 201.89,195.418 109.77,0 196.01,-86.269 196.01,-194.769 0,-111.11 -87.55,-198.68 -198.62,-198.68 z m -470.39,858.471 h -269.71 l -427.82,411.55 v -213.91 c 0,-137.18 16.27,-155.78 137.18,-158.11 v -39.53 h -434.79 v 39.53 c 118.58,2.33 137.18,23.25 137.18,158.11 v 1076.51 c 0,104.63 -16.28,118.58 -146.48,118.58 v 41.85 l 306.91,25.58 V 1788.18 l 223.21,197.64 c 37.19,32.55 60.45,69.75 60.45,95.32 0,44.17 -27.9,62.78 -99.98,62.78 v 39.53 h 446.42 v -39.53 h -37.21 c -90.68,0 -151.12,-30.23 -265.06,-132.53 l -176.7,-158.11 344.11,-344.11 c 79.05,-76.73 120.91,-99.97 202.29,-104.63 z m -12.62,-494.381 c -23.65,-1.981 -31.72,-6.008 -48.2,-23.738 l -7.63,-12.09 -86.07,-133.332 V 591.09 c 0,-41.36 10.82,-55.141 36.91,-55.141 h 4.45 v -20.508 h -141.41 v 20.508 h 7 c 28.01,0.133 36.9,13.781 36.9,55.141 v 111.07 l -77.48,120.379 c -25.45,39.461 -35.78,45.543 -65.05,48.09 v 19.812 h 152.23 V 869.93 h -7.64 c -18.45,0 -29.39,-3.008 -29.91,-12.91 -0.19,-3.809 2.55,-8.911 6.37,-15.911 l 7,-10.808 60.05,-93.512 53.65,82.633 c 8.27,13.359 14.05,25.457 14.05,33.719 0,14 -8.28,16.789 -24.82,16.789 v 20.511 h 109.6 z M 5916,809.488 l -1.27,5.082 c -10.82,35.629 -24.48,47.09 -71.57,47.09 h -53.11 V 589.18 c 0,-40.09 10.87,-52.539 36.32,-52.539 h 5.73 v -21.2 h -139.56 v 21.2 h 4.45 c 26.73,0 36.91,13.089 36.91,54.449 v 270.57 h -48.66 c -50.91,0 -63.25,-11.461 -70.88,-50.269 h -19.82 l 1.18,80.91 h 335.46 l 2.73,-82.813 z m -379.04,60.453 h -4.46 c -26.72,0 -36.5,-13.39 -36.9,-52.371 V 590.398 c 0,-41.359 10.18,-54.437 36.9,-54.437 h 4.46 v -20.52 h -140.78 v 20.52 h 5.09 c 26.09,0 37.6,13.769 37.6,55.129 v 227.172 c -3.39,44.629 -11.51,51.679 -37.6,51.679 h -5.09 v 20.5 h 140.78 z M 5215.14,506.398 c -19.73,0 -29.68,2.012 -60.23,12.102 -14.71,4.859 -19.93,7.199 -22.48,7.199 -4.32,0 -6.9,-4.57 -10.09,-14.109 h -19.59 l 0.23,109.051 h 21.12 l 0.63,-7 c 3.67,-33.75 8.61,-48.11 29.61,-64.012 15.27,-12.731 32.14,-19.02 51.87,-19.02 43.91,0 68.88,25.942 68.88,62.532 0,15.281 -6.26,32.218 -28.54,50.039 -13.35,11.449 -27.95,21.98 -43.22,31.519 -23.55,15.281 -39.86,25.11 -48.13,30.84 -8.91,6.359 -20.43,18.121 -28.7,27.66 -15.91,19.731 -21.68,43.063 -21.7,68.52 -0.04,59.152 45.57,98.32 104.12,98.32 18.45,0 29.27,-1.898 50.9,-8.898 12.74,-4.45 15.63,-5.192 19.63,-5.629 4.82,-0.512 6.38,2.597 6.34,7.48 -0.02,0.649 -0.06,1.278 -0.06,2.547 h 19.72 v -94.957 h -20.13 l -0.64,5.09 c -7.01,28.629 -13.43,43.969 -29.33,56.07 -14,10.817 -29.96,16.637 -48.42,16.43 -36.74,-0.434 -59.91,-28.121 -58.93,-54.473 0.57,-15.57 7.55,-32.258 22.19,-46.258 8.9,-8.269 21.4,-17.441 32.85,-25.07 8.27,-5.09 20.05,-12.98 39.77,-25.07 29.27,-18.461 44.1,-29.832 57.93,-46.692 16.12,-19.648 24.33,-43.32 24.38,-66.23 0.11,-58.117 -48.01,-107.981 -109.98,-107.981 z M 4888.55,1974.19 v -411.54 c 0,-130.21 20.93,-158.11 113.93,-158.11 h 23.25 v -39.52 h -437.11 v 39.52 h 20.93 c 95.32,0 116.25,27.9 116.25,158.11 v 444.09 c 0,113.93 -23.26,137.18 -130.21,137.18 h -32.54 v 39.53 l 325.5,25.57 v -176.71 c 158.11,134.86 223.21,174.39 283.66,174.39 44.18,0 106.96,-20.93 146.48,-48.83 l -62.78,-158.1 -18.6,9.3 c -86.02,46.5 -127.87,62.77 -174.37,62.77 -53.48,0 -99.98,-25.58 -174.39,-97.65 z m 160.73,-1458.862 -82.43,-0.566 c -14.8,16.289 -17.29,18.308 -44.95,62.82 -24.19,40.719 -39.79,66.168 -51.87,79.539 -5.1,6.359 -14.28,13.93 -21.91,19.02 -12.08,7.64 -18.44,8.539 -37.52,8.539 l -18.53,-0.688 v -94.363 c 0,-41.367 10.18,-53.758 36.91,-53.758 h 4.45 v -20.512 h -141.47 v 21.211 h 4.46 c 26.08,0 36.9,15.16 36.9,56.52 v 224.398 c 0,41.364 -10.82,52.371 -36.9,52.371 h -4.46 v 20.512 h 139.01 c 42.63,0 69.29,-4.312 90.93,-17.68 29.91,-17.179 51.29,-44.961 51.29,-86.453 0,-38.629 -20.1,-73.617 -69.74,-87.617 24.18,-16.551 25.95,-20.262 43.13,-48.262 l 27.37,-44.539 c 30.55,-49.64 47.66,-69.738 72.71,-69.949 h 3.18 z m -446.5,0.102 h -271.8 v 21.211 h 5.09 c 26.09,0 36.27,13.078 36.27,54.441 v 215.719 l -0.7,11.461 c 0,41.359 -9.48,51.668 -35.57,51.668 h -5.09 v 20.511 h 272.5 l 3.87,-71.472 h -19.18 c -8.91,38.179 -17.54,48.41 -58.27,48.41 h -100.15 v -150.66 h 83.61 c 40.09,0 41.72,3.179 48.72,31.82 0.63,0.641 0.63,1.91 1.27,3.82 h 19.12 v -98.148 h -19.82 c -8.27,31.187 -9.2,35 -48.65,35 h -84.25 V 562.449 c 0,-24.808 2.44,-23.258 36.8,-23.258 h 54.08 c 54.73,0 61.75,8.911 79.57,54.719 h 21.9 z m -313.65,355.199 c -32.46,-5.719 -45.01,-15.41 -65.38,-68.219 l -108.4,-289.512 h -18.43 L 3984.29,810.18 c -17.19,46.449 -31.35,57.84 -62.53,59.75 v 20.511 h 143.43 v -19.812 c -19.73,-0.641 -32.5,-6.828 -32.5,-20.188 0,-5.742 0.63,-5.402 7.63,-23.222 l 3.82,-12.078 77.24,-203.903 75.33,200.66 c 5.73,15.911 9.54,27.774 9.54,36.051 0,15.949 -9.6,21.293 -33.09,21.981 v 20.511 h 115.97 z m -641.05,524.611 c -63.04,-20.09 -134.85,-30.23 -237.15,-30.23 h -578.94 v 39.53 h 18.59 c 95.33,0 132.53,119.24 132.53,270.38 v 830.05 c 0,151.13 -30.09,276.6 -132.53,276.6 h -18.59 v 40.21 h 474.3 c 139.51,0 245.6,-18.97 322.25,-56.54 118.85,-58.25 175.97,-179.7 175.97,-286.65 0,-90.68 -21,-191.62 -112.94,-266.83 -48.21,-39.44 -78.14,-56.44 -164.39,-83.46 v -4.64 c 206.93,-44.18 346.43,-195.32 346.43,-374.34 0,-132.53 -72.27,-305.25 -225.53,-354.08 z m 222.98,-525.299 h -4.46 c -26.72,0 -36.5,-13.39 -36.91,-52.371 V 590.398 c 0,-41.359 10.19,-54.437 36.91,-54.437 h 4.46 v -20.52 h -140.78 v 20.52 h 5.09 c 26.09,0 37.6,13.769 37.6,55.129 v 227.172 c -3.39,44.629 -11.51,51.679 -37.6,51.679 h -5.09 v 20.5 h 140.78 z m -207.48,-0.011 h -5.73 c -29.91,0 -41.36,-9.68 -41.36,-50.399 V 513.52 h -18.44 L 3347.9,822.629 h -1.28 V 594.91 c 0,-47.09 10.88,-58.269 43.34,-58.269 h 5.08 V 515.43 h -121.11 v 20.519 h 5.74 c 27.99,0 39.45,16.371 39.45,60.922 v 207.68 c 0,46.461 -9.96,62.371 -54.09,66.078 v 19.812 h 101.85 l 220.19,-275.5 h 1.27 V 802.98 c 0,56.641 -9.6,66.95 -39.51,66.95 h -5.73 v 20.511 h 120.48 z m -464.09,0.011 h -9.99 c -17.87,-0.132 -32.07,-10.312 -32.07,-51.671 V 591.09 c 0.37,-34.84 5.98,-55.129 32.07,-55.129 h 9.99 v -20.52 l -100.48,0.348 v 43.352 c -35.16,-35.161 -67.95,-50.051 -116.32,-50.051 -86.57,0 -130.37,56.969 -128.94,134.18 v 175 c 0,41.359 -10.17,51.671 -36.26,51.671 h -5.09 v 20.688 h 141.41 v -20.688 h -4.45 c -26.73,0 -36.91,-10.312 -36.91,-51.671 V 649.629 c 2.12,-40.918 2.12,-55.91 14.64,-74.449 15.08,-22.34 39.05,-33.45 72.14,-33.45 42.64,0 72.12,17.989 99.78,55.45 l 0.37,209.629 v 11.461 c -0.37,31.941 -5.97,51.671 -32.06,51.671 h -7.39 v 20.508 h 139.56 z m -756.87,950.199 -0.15,-2.69 C 2411.11,1252.56 2388.37,844.41 1515.2,392.012 l -40.55,-20.961 v -0.09 l -0.09,0.039 -0.1,-0.039 v 0.09 l -40.55,20.961 C 560.738,844.41 538,1252.56 506.641,1817.45 l -0.153,2.69 v 2.71 l 1.551,1013.41 H 2441.07 l 1.55,-1013.41 z m 1556.57,-415.6 h 41.85 c 83.71,0 113.94,30.23 113.94,113.92 v 513.85 c 0,72.08 -32.55,104.63 -109.29,104.63 h -46.5 v 39.53 l 311.57,30.22 v -644.04 c 0,-137.18 16.27,-155.79 139.5,-158.11 v -39.53 h -451.07 z m 189.14,1310.78 1.15,-0.32 c -17.03,-24.46 -27.02,-54.21 -27.02,-86.27 0,-83.48 67.67,-151.16 151.14,-151.16 l 22.56,2.73 c -27.54,-40.44 -73.95,-67.39 -125.74,-67.39 -82.92,0 -148.59,69.11 -148.59,152.04 0,75.43 54.31,139.41 126.5,150.37 z M 8724,2206.7 c 53.48,0 118.59,-11.62 179.04,-30.24 20.92,-6.96 39.52,-11.61 51.15,-11.61 20.93,0 41.85,13.95 55.8,39.52 h 41.85 v -283.66 h -34.88 c -32.55,148.8 -141.82,244.14 -279,244.14 -165.09,0 -276.69,-137.18 -276.69,-341.79 0,-225.53 139.5,-413.86 309.24,-413.86 113.93,0 204.61,51.15 304.58,169.73 v -58.13 c -79.05,-111.6 -211.58,-176.71 -360.39,-176.71 -244.13,0 -413.86,169.73 -413.86,411.53 0,251.12 186,451.08 423.16,451.08 z m 383.63,592.89 306.91,25.58 V 1788.18 l 223.2,197.64 c 37.21,32.55 60.46,69.75 60.46,95.32 0,44.17 -27.91,62.78 -99.98,62.78 v 39.53 h 446.38 v -39.53 h -37.2 c -90.65,0 -151.1,-30.23 -265.02,-132.53 l -176.71,-158.11 344.11,-344.11 c 79.05,-76.73 120.92,-99.97 202.32,-104.63 v -39.53 h -269.75 l -427.81,411.55 v -213.91 c 0,-137.18 16.27,-155.78 137.18,-158.11 v -39.53 h -434.79 v 39.53 c 118.58,2.33 137.18,23.25 137.18,158.11 v 1076.51 c 0,104.63 -16.28,118.58 -146.48,118.58 z M 0,3303.54 V 0 H 10616.4 V 3303.54 H 0" /><path
             id="path50"
             style="fill:#231f20;fill-opacity:1;fill-rule:nonzero;stroke:none"
             d="m 9503.62,878.172 c -87.54,0 -137.3,-70.902 -137.3,-170.32 0,-100.301 49.56,-178.114 133.85,-178.114 86.23,0 134.01,72.621 134.01,172.051 0,102.02 -44.97,176.383 -130.56,176.383" /><path
             id="path52"
             style="fill:#231f20;fill-opacity:1;fill-rule:nonzero;stroke:none"
             d="m 7773.07,2162.51 c -130.2,0 -204.61,-81.37 -225.53,-255.75 h 446.41 c 0,162.75 -81.38,255.75 -220.88,255.75" /></g></g></g></g></svg>