<svg xmlns="http://www.w3.org/2000/svg" id="birkbeck-logo" viewBox="42 23 173 53">
      <title>birkbeck-logo icon</title>
       <path fill="#552234" fill-rule="evenodd" d="M 42 76 h 172.941 V 23.1034 H 42" /> <path fill="#fff" fill-rule="evenodd" d="M 207.148 62.0706 h -0.092852 c -0.487072 0 -0.672778 0.154997 -0.672778 0.80701 v 4.89986 h -0.301365 l -4.07446 -4.94949 h -0.02085 v 3.64627 c 0 0.75401 0.177234 0.933024 0.706008 0.933024 h 0.082754 v 0.339616 h -1.97289 v -0.328567 h 0.093342 c 0.45612 0 0.642804 -0.262118 0.642804 -0.975456 v -3.32539 c 0 -0.74392 -0.162248 -0.998673 -0.88129 -1.05808 v -0.3172 h 1.65914 l 3.58625 4.41133 h 0.021178 v -3.01092 c 0 -0.906924 -0.156385 -1.07201 -0.643456 -1.07201 h -0.092853 V 61.7422 h 1.96132 v 0.328407 Z m -10.3567 5.81863 c -1.81992 0 -3.24611 -1.40218 -3.24611 -3.17088 c 0 -1.7791 1.41544 -3.12908 3.28879 -3.12908 c 1.78816 0 3.19301 1.38136 3.19301 3.11867 c 0 1.7791 -1.42619 3.18128 -3.23569 3.18128 v 2e-006 Z m -6.1345 -0.40927 c -0.466383 0.17309 -1.01096 0.26676 -1.67429 0.26676 h -2.80612 v -0.339616 h 0.09497 c 0.42517 0 0.578785 -0.209438 0.578785 -0.871698 v -3.64851 c 0 -0.66242 -0.176097 -0.816456 -0.601267 -0.816456 h -0.07249 v -0.328408 h 2.48472 c 0.756833 0 1.02806 0.009286 1.41153 0.101035 c 0.238485 0.061167 0.47697 0.142668 0.70503 0.254593 c 1.00558 0.509664 1.69596 1.57447 1.69596 2.71581 c 0 1.22252 -0.68695 2.25898 -1.81683 2.66649 Z m -5.39819 -5.40936 h -0.093342 c -0.487234 0 -0.673755 0.154997 -0.673755 0.80701 v 4.89986 h -0.300225 l -4.07495 -4.94949 h -0.021014 v 3.64627 c 0 0.75401 0.177235 0.933025 0.70601 0.933025 h 0.082752 v 0.339616 h -1.97272 v -0.328568 h 0.09334 c 0.45612 0 0.642642 -0.262118 0.642642 -0.975456 v -3.32539 c 0 -0.74392 -0.16225 -0.998673 -0.881127 -1.05808 v -0.3172 h 1.65914 l 3.58706 4.41133 h 0.020526 v -3.01091 c 0 -0.906924 -0.15622 -1.07201 -0.643456 -1.07201 h -0.093342 V 61.7422 h 1.96246 v 0.328407 Z m -10.5452 5.81863 c -1.81992 0 -3.24628 -1.40218 -3.24628 -3.17087 c 0 -1.7791 1.41544 -3.12908 3.28879 -3.12908 c 1.78815 0 3.19317 1.38136 3.19317 3.11867 c 0 1.7791 -1.42635 3.18128 -3.23569 3.18128 v 2e-006 Z m -4.30236 -0.14251 h -4.44848 v -0.339455 h 0.062228 c 0.46622 0 0.611364 -0.219846 0.611364 -1.05536 V 63.0813 l 0.01059 -0.26484 c 0 -0.591006 -0.176422 -0.746003 -0.591003 -0.746003 h -0.09318 V 61.7422 h 2.29412 v 0.328247 h -0.062226 c -0.466546 0 -0.61332 0.1582 -0.61332 1.00396 l 0.001793 3.29801 v 0.366676 c -0.001792 0.46115 0.035024 0.545854 0.501407 0.56619 l 0.34209 0.010087 h 0.943355 c 0.725557 0 0.83405 -0.152756 1.10381 -0.998514 h 0.367015 l -0.429568 1.42988 v -5e-006 Z m -10.8772 -3.31482 c 0.66349 0 0.75211 -0.10184 0.814337 -0.652014 h 0.322868 v 1.7956 h -0.322866 c -0.07249 -0.57051 -0.150846 -0.65121 -0.824764 -0.65121 h -1.22615 v 1.61113 c 0 0.66226 0.165832 0.871858 0.59084 0.871858 h 0.082915 v 0.339456 h -2.31481 v -0.339455 h 0.082753 c 0.42517 0 0.591002 -0.309354 0.591002 -0.971613 v -3.53771 c 0 -0.66242 -0.154592 -0.827505 -0.579762 -0.827505 h -0.093993 V 61.7422 h 4.23264 l 0.0518 1.19434 h -0.322868 c -0.134882 -0.672507 -0.254613 -0.825262 -0.897417 -0.825262 h -1.4231 v 2.32063 H 159.534 Z m -6.9213 3.45733 c -1.81992 0 -3.24627 -1.40218 -3.24627 -3.17087 c 0 -1.7791 1.4156 -3.12908 3.28879 -3.12908 c 1.78815 0 3.193 1.38136 3.193 3.11867 c 0 1.7791 -1.42619 3.18128 -3.23552 3.18128 l 2e-006 2e-006 Z m -7.86824 -5.82984 c -0.38526 0.031702 -0.51672 0.09623 -0.78518 0.380125 l -0.124292 0.193587 l -1.40208 2.13489 v 1.76742 c 0 0.66226 0.176258 0.882906 0.601265 0.882906 h 0.07249 v 0.328408 h -2.30357 v -0.328407 h 0.11403 c 0.456283 -0.00208 0.6011 -0.220647 0.6011 -0.882907 V 64.757 l -1.26215 -1.92753 c -0.41458 -0.631837 -0.582856 -0.72919 -1.05966 -0.77002 v -0.3172 h 2.47983 v 0.328407 h -0.124456 c -0.300553 0 -0.478766 0.048197 -0.487237 0.206716 c -0.003095 0.061005 0.04154 0.142667 0.103768 0.25475 l 0.11403 0.17309 l 0.978217 1.49729 l 0.87396 -1.32308 c 0.134718 -0.213922 0.228874 -0.407668 0.228874 -0.539928 c 0 -0.22417 -0.13488 -0.268843 -0.404317 -0.268843 V 61.7422 h 1.78539 v 0.3172 v -5e-006 Z m -6.37282 0.978977 l -0.020687 -0.081342 c -0.176258 -0.57051 -0.39878 -0.75401 -1.16588 -0.75401 h -0.865162 V 66.566 c 0 0.641924 0.177072 0.841275 0.591653 0.841275 h 0.093342 v 0.339456 h -2.27344 v -0.339454 h 0.07249 c 0.435433 0 0.601265 -0.209598 0.601265 -0.871858 v -4.33239 h -0.792673 c -0.829325 0 -1.03034 0.1835 -1.15464 0.804928 h -0.322868 l 0.019222 -1.29554 h 5.46465 l 0.044472 1.32596 h -0.291755 v -5e-006 Z m -6.17457 -0.96793 h -0.072654 c -0.43527 0 -0.594587 0.2144 -0.601103 0.838552 v 3.63747 c 0 0.66226 0.165832 0.871698 0.6011 0.871698 h 0.072655 v 0.328568 h -2.29331 v -0.328567 h 0.082917 c 0.425006 0 0.612504 -0.220487 0.612504 -0.882747 v -3.63747 c -0.055223 -0.71462 -0.187498 -0.827505 -0.612505 -0.827505 h -0.082917 V 61.7422 h 2.29331 v 0.328247 v -4e-006 Z m -5.24245 5.82104 c -0.321403 0 -0.48349 -0.032184 -0.98115 -0.193746 c -0.239625 -0.07782 -0.32466 -0.115287 -0.3662 -0.115287 c -0.070372 0 -0.1124 0.073175 -0.164365 0.22593 h -0.31912 l 0.003745 -1.74612 h 0.344046 l 0.010262 0.112084 c 0.059785 0.540408 0.140257 0.770342 0.482348 1.02493 c 0.248748 0.203834 0.52356 0.30455 0.844963 0.30455 c 0.715293 0 1.12205 -0.415354 1.12205 -1.00124 c 0 -0.244664 -0.101975 -0.51591 -0.464917 -0.801245 c -0.21747 -0.183338 -0.455306 -0.351945 -0.704054 -0.5047 c -0.38363 -0.244665 -0.64932 -0.402064 -0.78404 -0.493813 c -0.145143 -0.101837 -0.332804 -0.29014 -0.467523 -0.442894 c -0.259173 -0.31592 -0.353166 -0.68948 -0.353492 -1.09715 c -0.00065 -0.947113 0.742336 -1.57431 1.69612 -1.57431 c 0.30055 0 0.47681 0.030423 0.829162 0.142508 c 0.207535 0.071256 0.254613 0.083105 0.319773 0.09015 c 0.078518 0.008166 0.10393 -0.04163 0.10328 -0.11977 c -0.000327 -0.01041 -0.00098 -0.020496 -0.00098 -0.04083 h 0.32124 v 1.52051 h -0.327918 l -0.010425 -0.0815 c -0.114193 -0.458427 -0.218775 -0.704053 -0.477786 -0.8978 c -0.22806 -0.17325 -0.48805 -0.26644 -0.78876 -0.263077 c -0.598496 0.006884 -0.975936 0.45026 -0.95997 0.872177 c 0.009283 0.249308 0.12299 0.51655 0.361473 0.74072 c 0.144982 0.13242 0.348607 0.27925 0.535128 0.401422 c 0.13472 0.0815 0.326615 0.207836 0.647855 0.401422 c 0.47681 0.295584 0.71839 0.47764 0.94368 0.747605 c 0.262596 0.314638 0.396337 0.693644 0.39715 1.06048 c 0.001793 0.930623 -0.782083 1.72898 -1.79157 1.72898 v -2e-006 Z m -5.32016 -23.5024 v 6.58961 c 0 2.08493 0.34095 2.53167 1.85592 2.53167 h 0.378744 v 0.632798 h -7.12053 v -0.632797 h 0.34095 c 1.55277 0 1.89372 -0.446738 1.89372 -2.53167 V 43.8679 c 0 -1.82426 -0.378906 -2.19654 -2.12112 -2.19654 h -0.530078 v -0.632957 l 5.3024 -0.40943 v 2.8295 c 2.57561 -2.15939 3.6361 -2.79235 4.62083 -2.79235 c 0.719693 0 1.74238 0.335133 2.38616 0.78187 l -1.02269 2.53151 l -0.302994 -0.148912 c -1.40127 -0.74456 -2.08301 -1.00508 -2.84049 -1.00508 c -0.87119 0 -1.62868 0.40959 -2.84082 1.56358 Z m -4.6552 23.3578 h -4.42763 v -0.339614 h 0.082916 c 0.425006 0 0.59084 -0.209438 0.59084 -0.871698 V 63.0815 l -0.011404 -0.183498 c 0 -0.66226 -0.15443 -0.827345 -0.579436 -0.827345 h -0.082916 V 61.7422 h 4.43903 l 0.063042 1.14438 h -0.312442 c -0.145144 -0.61134 -0.285727 -0.775145 -0.94922 -0.775145 h -1.63144 v 2.41238 h 1.36201 c 0.653066 0 0.67962 -0.050918 0.79365 -0.509504 c 0.010262 -0.010247 0.010262 -0.030583 0.020687 -0.061166 h 0.311466 v 1.57159 h -0.32287 c -0.134717 -0.499417 -0.149867 -0.560423 -0.792508 -0.560423 h -1.37243 v 2.02969 c 0 0.39726 0.03975 0.37244 0.599474 0.37244 h 0.880964 c 0.891553 0 1.00591 -0.142667 1.2962 -0.87618 h 0.35675 l -0.314722 1.25663 h -2e-006 Z m -5.10936 -5.68749 c -0.528775 0.091588 -0.733215 0.246745 -1.06504 1.09234 l -1.76584 4.63566 h -0.300227 l -1.83475 -4.76007 c -0.280026 -0.743763 -0.510693 -0.92614 -1.01862 -0.956724 V 61.7422 h 2.33648 v 0.3172 c -0.321402 0.010247 -0.529426 0.10936 -0.529426 0.323283 c 0 0.09191 0.010263 0.086465 0.124293 0.3718 l 0.062227 0.193426 l 1.25824 3.26486 l 1.22713 -3.21298 c 0.093342 -0.254754 0.155407 -0.444657 0.155407 -0.577237 c 0 -0.255392 -0.156386 -0.340896 -0.539038 -0.351945 V 61.7422 h 1.88915 v 0.3172 h 5e-006 Z m -6.81037 0.011047 h -0.072653 c -0.43527 0 -0.594586 0.214402 -0.601265 0.838553 v 3.63747 c 0 0.66226 0.165996 0.871698 0.601265 0.871698 h 0.072653 v 0.328568 h -2.29331 v -0.328566 h 0.082918 c 0.425006 0 0.612504 -0.220486 0.612504 -0.882746 v -3.63747 c -0.055223 -0.71462 -0.187498 -0.827505 -0.612504 -0.827505 h -0.082917 V 61.7422 h 2.29331 v 0.328247 h -2e-006 Z m -3.37985 0.00016 h -0.093342 c -0.487234 0 -0.673755 0.154997 -0.673755 0.80701 v 4.89986 h -0.300388 l -4.07495 -4.94949 h -0.02085 v 3.64627 c 0 0.75401 0.177234 0.933024 0.706008 0.933024 h 0.082753 v 0.339616 H 95.3324 v -0.328567 h 0.093506 c 0.455958 0 0.64264 -0.262118 0.64264 -0.975456 v -3.32539 c 0 -0.74392 -0.162247 -0.998673 -0.881126 -1.05808 v -0.3172 h 1.65914 l 3.5869 4.41133 h 0.020688 v -3.01092 c 0 -0.906924 -0.156384 -1.07201 -0.64362 -1.07201 h -0.09334 V 61.7422 h 1.96262 v 0.328407 Z m -7.56004 -0.00016 h -0.162737 c -0.291103 0.002082 -0.52242 0.165085 -0.52242 0.827344 v 3.63763 c 0.006026 0.55786 0.097414 0.882746 0.52242 0.882746 h 0.162737 v 0.328568 l -1.63682 -0.005603 v -0.694125 c -0.572758 0.562985 -1.10691 0.801405 -1.89486 0.801405 c -1.41023 0 -2.12373 -0.91221 -2.10044 -2.1485 V 62.8978 c 0 -0.662258 -0.16567 -0.827343 -0.590676 -0.827343 h -0.082916 v -0.33129 h 2.30357 v 0.33129 h -0.07249 c -0.435432 0 -0.601265 0.165085 -0.601265 0.827344 v 2.70028 c 0.034535 0.655215 0.034535 0.895236 0.238486 1.1921 c 0.245654 0.35771 0.636126 0.535604 1.17516 0.535604 c 0.694607 0 1.17484 -0.288057 1.62542 -0.88787 l 0.00603 -3.35661 v -0.1835 c -0.00603 -0.511423 -0.097253 -0.827342 -0.52226 -0.827342 h -0.120383 v -0.328408 h 2.27344 v 0.328407 h -2e-006 Z m 16.1082 -29.5485 l 0.018733 0.005283 c -0.27742 0.391656 -0.440156 0.868015 -0.440156 1.3812 c 0 1.33685 1.10234 2.42055 2.46207 2.42055 l 0.367503 -0.043713 c -0.448627 0.647528 -1.20465 1.07905 -2.04831 1.07905 c -1.35077 0 -2.42053 -1.10659 -2.42053 -2.43447 c 0 -1.20763 0.88471 -2.23224 2.06069 -2.4079 Z m 80.1355 -1.34902 l 4.99957 -0.40975 v 16.6044 l 3.63593 -3.16463 c 0.606153 -0.521193 0.984896 -1.11684 0.984896 -1.52627 c 0 -0.707253 -0.454653 -1.00524 -1.62867 -1.00524 v -0.632958 h 7.27154 v 0.632958 h -0.60599 c -1.47669 0 -2.46142 0.484045 -4.31718 2.12208 l -2.87861 2.53167 l 5.60556 5.50992 c 1.28773 1.22861 1.96979 1.60073 3.2958 1.67534 v 0.632957 h -4.39423 l -6.96903 -6.58977 v 3.42515 c 0 2.19654 0.26504 2.49436 2.23466 2.53167 v 0.632958 h -7.08274 v -0.632957 c 1.93167 -0.03731 2.23466 -0.37228 2.23466 -2.53167 V 33.7414 c 0 -1.67519 -0.2652 -1.89855 -2.38616 -1.89855 v -0.669946 l 2e-006 -2e-006 Z m -6.24934 9.49325 c 0.87119 0 1.93183 0.18606 2.91656 0.484205 c 0.340785 0.111444 0.64378 0.1859 0.833233 0.1859 c 0.34095 0 0.681737 -0.223368 0.908983 -0.632797 h 0.681737 v 4.54199 h -0.568196 c -0.53024 -2.3826 -2.31025 -3.90919 -4.54492 -3.90919 c -2.68932 0 -4.50729 2.19654 -4.50729 5.47277 c 0 3.61121 2.27246 6.62676 5.03753 6.62676 c 1.85592 0 3.3331 -0.819017 4.96161 -2.71773 v 0.930783 c -1.28773 1.78695 -3.44664 2.82949 -5.87076 2.82949 c -3.97688 0 -6.74179 -2.71773 -6.74179 -6.58945 c 0 -4.02096 3.02994 -7.22273 6.89328 -7.22273 l 2e-006 -2e-006 Z m -21.8917 7.03651 c 0 -3.94634 2.99215 -7.03635 6.77975 -7.03635 c 3.03011 0 5.79501 2.3826 5.75705 4.98872 v 0.446737 h -9.88544 c 0.113542 2.64328 0.416536 3.83457 1.40127 5.21209 c 0.984894 1.45197 2.53782 2.3826 3.97705 2.3826 c 1.55293 0 2.95436 -0.893474 4.73453 -2.94094 v 0.96793 c -1.62884 2.01032 -3.1816 2.75504 -5.52997 2.75504 c -4.20413 0 -7.23423 -2.82949 -7.23423 -6.77583 l -2e-006 2e-006 Z m -11.44 6.58961 c -1.13639 0 -2.12112 -0.074615 -3.93909 -0.40959 v -19.7688 c -0.037955 -2.23368 -0.18929 -2.3826 -2.38616 -2.4199 v -0.632796 l 4.96178 -0.37228 v 11.8762 c 1.13607 -1.1913 2.84066 -1.89871 4.50712 -1.89871 c 3.4846 0 6.21155 2.82934 6.21155 6.44054 c 0 2.53167 -1.43922 4.83997 -3.82538 6.06842 c -1.51497 0.78203 -3.21956 1.117 -5.52981 1.117 Z m -5.83231 -0.148913 h -4.39358 l -6.9692 -6.58977 v 3.42515 c 0 2.19654 0.26504 2.49436 2.23466 2.53167 v 0.632958 H 128.739 v -0.632956 c 1.93167 -0.03731 2.23466 -0.37228 2.23466 -2.53167 v -17.2373 c 0 -1.67518 -0.2652 -1.89855 -2.38616 -1.89855 v -0.669945 l 4.99957 -0.40975 v 16.6044 l 3.6361 -3.16463 c 0.605826 -0.521193 0.984732 -1.11684 0.984732 -1.52627 c 0 -0.707254 -0.454492 -1.00524 -1.62868 -1.00524 v -0.632958 h 7.27219 v 0.632958 h -0.60615 c -1.47718 0 -2.46175 0.484045 -4.31783 2.12208 l -2.87845 2.53167 l 5.60556 5.50992 c 1.28772 1.22861 1.96962 1.60073 3.29531 1.67534 v 0.632957 v -2e-006 Z m -20.6973 13.6052 l -1.34279 0.009126 c -0.241092 -0.26084 -0.281654 -0.293183 -0.732236 -1.00588 c -0.394056 -0.652013 -0.64818 -1.05952 -0.844964 -1.2736 c -0.08308 -0.10184 -0.23262 -0.22305 -0.356914 -0.30455 c -0.196783 -0.122334 -0.300388 -0.136745 -0.6112 -0.136745 l -0.301856 0.011048 v 1.5109 c 0 0.66242 0.165833 0.86081 0.601265 0.86081 h 0.07249 v 0.328408 h -2.30455 v -0.339615 h 0.072653 c 0.424844 0 0.601102 -0.242743 0.601102 -0.905003 V 62.9103 c 0 -0.66226 -0.176258 -0.838552 -0.601102 -0.838552 h -0.072653 v -0.328408 h 2.26448 c 0.694444 0 1.12874 0.069012 1.48125 0.283094 c 0.487234 0.275087 0.835515 0.719903 0.835515 1.38425 c 0 0.618544 -0.32743 1.17881 -1.13607 1.40298 c 0.393893 0.265 0.422726 0.324405 0.702588 0.772744 l 0.44586 0.71318 c 0.49766 0.79484 0.77638 1.11668 1.18445 1.12004 h 0.051803 l -0.009124 0.328888 Z M 107.147 53.5104 h 0.681738 c 1.36364 0 1.85608 -0.484046 1.85608 -1.8241 v -8.22781 c 0 -1.15415 -0.53024 -1.67534 -1.78034 -1.67534 h -0.757486 v -0.632958 l 5.07548 -0.483885 v 10.3124 c 0 2.19654 0.265038 2.49452 2.27246 2.53167 v 0.632958 h -7.34794 v -0.632957 Z m -5.71959 0.148913 c -1.02692 0.321682 -2.19671 0.484044 -3.86318 0.484044 H 88.1332 v -0.632957 h 0.302832 c 1.55293 0 2.15892 -1.90928 2.15892 -4.32935 V 35.8902 c 0 -2.41991 -0.490167 -4.42894 -2.15892 -4.42894 h -0.302832 v -0.643846 h 7.72636 c 2.27262 0 4.00083 0.30375 5.24946 0.905323 c 1.93607 0.932704 2.86655 2.87737 2.86655 4.58986 c 0 1.45198 -0.34209 3.06824 -1.8398 4.2725 c -0.785342 0.631516 -1.2729 0.903722 -2.67792 1.33637 v 0.074296 c 3.37089 0.707414 5.64335 3.12748 5.64335 5.99396 c 0 2.12208 -1.17728 4.88769 -3.67389 5.66956 Z" /> <path fill="#552234" fill-rule="evenodd" d="M 100.821 36.1743 c 0 -2.08493 -0.78469 -3.56701 -2.89881 -4.16266 c -0.818084 -0.230572 -1.38123 -0.28037 -2.82062 -0.28037 h -1.62851 v 9.85512 h 2.23466 c 3.18144 0 5.11327 -2.73166 5.11327 -5.41208 Z m 95.9927 25.7644 c -1.42603 0 -2.23662 1.13526 -2.23662 2.72718 c 0 1.60601 0.807333 2.85191 2.18042 2.85191 c 1.40469 0 2.18303 -1.1628 2.18303 -2.75488 c 0 -1.63355 -0.732563 -2.82421 -2.12683 -2.82421 Z m -22.0779 0 c -1.42619 0 -2.23662 1.13526 -2.23662 2.72718 c 0 1.60601 0.807334 2.85191 2.18026 2.85191 c 1.40485 0 2.18302 -1.1628 2.18302 -2.75488 c 0 -1.63355 -0.7324 -2.82421 -2.12666 -2.82421 Z M 152.865 41.6715 c -1.36331 0 -2.42395 0.59565 -3.44648 1.86141 v 6.66407 c 0 2.9411 0.340788 3.42514 2.27246 3.42514 c 3.52239 0 5.60556 -2.34545 5.60556 -6.29179 c 0 -3.23908 -1.89388 -5.65883 -4.43154 -5.65883 v -2e-006 Z m 15.758 -0.297825 c -2.12096 0 -3.3331 1.3029 -3.67389 4.09509 h 7.27203 c 0 -2.60597 -1.32568 -4.09509 -3.59814 -4.09509 h 2e-006 Z m -48.0419 20.7377 l -0.52063 0.003524 l -0.006515 2.51838 l 0.696724 -0.00352 c 0.390472 0 0.616414 -0.06325 0.844474 -0.26228 c 0.281655 -0.246104 0.4224 -0.55978 0.4224 -0.947433 c 0 -0.79372 -0.544412 -1.29025 -1.43645 -1.30867 v -2e-006 Z m 32.0539 -0.17277 c -1.42619 0 -2.23662 1.13526 -2.23662 2.72718 c 0 1.60601 0.807334 2.85191 2.18026 2.85191 c 1.40485 0 2.18303 -1.1628 2.18303 -2.75488 c 0 -1.63355 -0.7324 -2.82421 -2.12666 -2.82421 Z m 37.6467 0.523756 c -0.403178 -0.282934 -0.839588 -0.35947 -1.63861 -0.35947 l -0.825904 0.00208 v 4.24384 c 0 0.798523 0.102953 1.02493 0.704218 1.02493 h 0.446672 c 0.901978 0 1.40957 -0.228813 1.85527 -0.758813 c 0.393893 -0.468514 0.555164 -0.998994 0.555164 -1.78343 c 0 -1.08017 -0.41621 -1.89135 -1.09681 -2.36915 Z M 95.5187 42.6659 h -2.04521 v 7.04484 c 0 2.86664 0.492448 3.57405 2.46191 3.57405 h 1.09844 c 1.81797 0 2.84065 -0.40959 3.71168 -1.48928 c 0.643945 -0.819017 1.02269 -1.97301 1.02269 -3.20162 c 0 -3.09001 -2.42395 -5.92799 -6.2495 -5.92799 v 2e-006 Z" /> <path fill="#fff" fill-rule="evenodd" d="M 66.0221 32.1214 H 51.8164 l -0.023457 14.7173 c 0.511018 9.02777 0.948405 14.7641 14.2277 21.5412 c 13.2793 -6.77712 13.7165 -12.5134 14.2275 -21.5412 l -0.02346 -14.7173 H 66.0221 Z m 3.74068 33.287 V 61.7321 h 4.69755 c -1.2224 1.23213 -2.75871 2.45193 -4.69755 3.67637 Z m 4.78698 -3.76652 V 56.72 h 3.32007 c -0.704707 1.68815 -1.74759 3.31594 -3.32007 4.92195 Z m -12.2732 3.76652 c -1.93884 -1.22444 -3.47499 -2.44425 -4.69739 -3.67637 h 4.69739 v 3.67637 Z m -4.78699 -3.76652 c -1.57247 -1.60601 -2.61536 -3.2338 -3.31991 -4.92196 h 3.31991 V 61.642 Z m 12.2732 -4.9354 h 4.78552 v -5.00618 h -4.78552 v 5.00618 Z m -12.2718 -2e-006 h 4.78552 v -5.00618 h -4.78552 v 5.00618 Z m 11.5185 9.15315 l -3.00062 1.65421 l -2.97732 -1.66045 V 46.6972 h 5.97795 v 19.1625 v -2e-006 Z M 79.4947 47.1664 v 0.038108 l -0.002117 0.037788 c -0.087806 1.55461 -0.178867 3.03365 -0.36164 4.45504 h -4.58124 V 46.6918 H 79.5006 l -0.005864 0.4746 Z m -22.0052 4.53094 h -4.58108 c -0.182772 -1.42139 -0.273996 -2.90043 -0.3618 -4.45504 l -0.002117 -0.037788 v -0.03811 l -0.00391 -0.474597 h 4.94891 v 5.00554 Z m -4.95966 -5.75234 h 26.9815 v -13.1328 H 52.5299 v 13.1328 Z M 63.515 35.4797 c 0.068907 -0.009128 0.236206 -0.017294 0.61055 0.023376 c 0.169254 0.018734 0.291266 0.07798 0.362942 0.176293 c 0.08096 0.110962 0.08373 0.25123 0.077377 0.328566 c -0.41474 0.102638 -0.72132 0.07894 -0.888944 -0.06853 c -0.155244 -0.136905 -0.166647 -0.35499 -0.161923 -0.459708 v 2e-006 Z m 2.15028 0.182857 c 0.074608 -0.108722 0.20949 -0.174372 0.40106 -0.195188 c 0.419468 -0.046277 0.587418 -0.028823 0.647366 -0.016174 c 0.006843 0.103118 0.00212 0.346822 -0.170066 0.499577 c -0.177724 0.15708 -0.503036 0.182058 -0.943355 0.072055 c -0.01173 -0.080702 -0.01955 -0.23698 0.064996 -0.360273 v 2e-006 Z m -2.94409 -0.599813 c -0.155407 0.378366 -0.20493 0.758492 -0.151497 1.15911 c 0.040562 0.316396 0.179516 0.5593 0.41344 0.722303 c 0.457913 0.3188 1.12645 0.221447 1.39247 0.164924 c 0.180983 -0.037948 0.32743 -0.019214 0.434782 0.055882 c 0.161108 0.112404 0.18994 0.320882 0.190267 0.322323 l 0.070862 0.587323 c -0.026064 -0.03907 -0.055712 -0.077178 -0.093342 -0.110964 c -0.108492 -0.097193 -0.24777 -0.14731 -0.414907 -0.149393 l -0.001303 -0.004164 l -0.08601 0.007526 c -0.003097 0.00016 -0.006192 0.00048 -0.009287 0.0008 l 0.00456 0.045475 l -0.010424 -0.04147 c -0.143187 0.034425 -1.51611 0.17597 -1.7098 -0.401905 l -0.01238 -0.55882 l -0.182447 0.31992 c -0.00847 0.01457 -0.204114 0.362834 -0.25559 0.909326 c -0.04708 0.502298 0.024272 1.27424 0.633192 2.10014 c 0.924785 1.25439 1.43417 1.94531 1.57557 2.98401 c 0.04154 0.300227 0.01222 0.5023 -0.090083 0.617266 c -0.137812 0.155157 -0.420933 0.15884 -0.720832 0.154997 c -0.103116 -0.001122 -0.206883 0 -0.308533 0.005924 c -0.195154 0.01073 -0.351864 0.08182 -0.465732 0.21184 c -0.22855 0.260677 -0.1932 0.66306 -0.191407 0.680194 l 0.020036 0.21088 l 0.152964 -0.149394 c 0.038444 -0.037308 0.244024 -0.057003 0.435106 -0.04195 c 1.211 0.362833 1.50341 0.005283 1.75932 -0.50022 c 0.108817 -0.2128 0.314397 -0.36027 0.513136 -0.502938 c 0.213562 -0.153236 0.415395 -0.297985 0.50548 -0.519112 c 0.077702 -0.191184 -0.151172 -0.34362 -0.35317 -0.47796 c -0.083404 -0.055563 -0.16974 -0.113046 -0.202647 -0.153076 c -0.000488 -0.00048 -0.000977 -0.00112 -0.001466 -0.001762 c 0.01189 -0.002882 0.035023 0.002562 0.06793 0.01425 c 0.126246 0.045796 0.251842 0.021137 0.33655 -0.06597 c 0.07982 -0.08182 0.104907 -0.203352 0.062065 -0.303428 c -0.064835 -0.14683 -0.225454 -0.336414 -0.336878 -0.427362 c -0.028345 -0.023218 -0.052943 -0.069973 -0.061902 -0.101517 c 0.014824 0.002882 0.036653 0.008807 0.067115 0.021136 c 0.203298 0.082303 0.35447 0.087587 0.462472 0.016974 c 0.08194 -0.05396 0.121524 -0.139305 0.140583 -0.233456 c 0.109958 0.18622 0.26178 0.538967 0.377277 1.17417 c 0.09823 0.54169 0.151334 0.879383 0.0606 0.998834 c -0.06793 0.089347 -0.259664 0.110323 -0.57732 0.14523 l -0.04659 0.005123 c -0.26634 0.028982 -0.459866 0.1313 -0.575362 0.30423 c -0.200693 0.300547 -0.07917 0.698127 -0.073957 0.71494 l 0.10784 0.343298 l 0.088292 -0.348902 c 0.023946 -0.094792 0.145144 -0.165886 0.253147 -0.15708 c 0.056363 0.006726 0.106374 0.009127 0.168113 0.01169 c 0.11794 0.005283 0.2797 0.01249 0.628143 0.059885 c 0.32189 0.043713 0.616903 -0.006726 0.92902 -0.059565 c 0.215517 -0.036348 0.4382 -0.074297 0.68027 -0.081982 c 0.308534 -0.009287 0.544576 0.030583 0.700146 0.057323 c 0.166484 0.02834 0.310325 0.053 0.340136 -0.083743 c 0.034697 -0.17085 0.004887 -0.31944 -0.08878 -0.441453 c -0.15264 -0.19919 -0.467525 -0.315438 -0.962904 -0.35547 c -0.240278 -0.018413 -0.3965 -0.127615 -0.421586 -0.220965 c -0.012706 -0.047397 0.011077 -0.09143 0.069884 -0.13034 c 0.170068 -0.110323 0.270415 -0.194066 0.280515 -0.295903 c 0.008957 -0.089348 -0.056203 -0.152435 -0.08357 -0.178855 c -0.040237 -0.03939 -0.081776 -0.07782 -0.121687 -0.114326 c -0.076563 -0.070454 -0.192222 -0.176774 -0.202322 -0.202073 c 0.007658 -0.016172 0.01336 -0.023538 0.01352 -0.02546 c 0.007333 0.00032 0.02248 0.003203 0.03307 0.005445 c 0.05962 0.011688 0.183915 0.037147 0.273184 -0.110324 c 0.105886 -0.17069 -0.01743 -0.373082 -0.135695 -0.509825 c 0.236204 -0.018894 0.37304 0.016813 0.460517 0.274927 c 0.040074 0.11753 0.07021 0.21072 0.09611 0.29062 c 0.067442 0.208157 0.108167 0.333692 0.216333 0.55882 c 0.18196 0.373724 0.365712 0.35723 0.76384 0.286298 c 0.679457 -0.121852 1.17337 -0.123614 1.17826 -0.123614 l 0.144818 -0.00016 l -0.049033 -0.13386 c -0.657302 -1.79271 -0.870213 -1.82778 -0.95036 -1.84091 c -0.028018 -0.004963 -0.052616 -0.00096 -0.072653 0.007366 c -2.70903 0.322163 -3.68529 -1.34085 -3.83875 -1.64252 l 0.069233 -0.123773 c 1.68341 1.42492 3.53738 1.07905 3.61671 1.06304 l 0.106535 -0.020816 l -0.028344 -0.103277 c -0.703403 -2.56049 -1.4894 -2.93149 -1.91147 -3.13068 c -0.058808 -0.0277 -0.10947 -0.05156 -0.146937 -0.076217 l -0.093505 -0.061487 l -0.052943 0.097354 c -0.310325 0.57099 -1.30418 0.430084 -1.6782 0.376764 c -0.044636 -0.006245 -0.08031 -0.011208 -0.105723 -0.01377 c -0.21063 -0.018895 -0.38314 0.029622 -0.512158 0.14523 c -0.040564 0.036507 -0.072003 0.077498 -0.09937 0.11945 l 0.07705 -0.59533 c 0.000164 -0.00208 0.028835 -0.21056 0.189943 -0.323124 c 0.10686 -0.074456 0.252657 -0.09351 0.433313 -0.055562 c 0.26618 0.056523 0.935047 0.153876 1.39247 -0.164764 c 0.23409 -0.162843 0.373368 -0.405746 0.414256 -0.722305 c 0.051802 -0.399824 0.000814 -0.789558 -0.15166 -1.15944 c 0.16567 -0.13146 0.55158 -0.51751 0.446672 -1.19418 l -0.018897 -0.12153 l -0.117126 0.04275 c -0.006843 0.002404 -0.660724 0.241144 -1.04207 0.403026 c -0.147586 -0.060205 -0.655672 -0.231855 -1.64806 -0.231855 c -0.99304 0 -1.50178 0.17149 -1.64953 0.231696 c -0.37793 -0.161402 -1.01291 -0.392776 -1.04077 -0.402864 l -0.117126 -0.042752 l -0.018733 0.121372 c -0.105233 0.67683 0.28035 1.06304 0.445696 1.1945 h 4e-006 Z m 3.4604 31.5429 c -0.039835 0 -0.072273 -0.006766 -0.11097 -0.007894 c -0.038697 0.001128 -0.071704 0.007894 -0.11097 0.007894 h 0.22194 Z m -1.1653 -3.93806 c 0 0.050598 0.011404 0.192785 0.177236 0.216803 c -0.01466 0.457308 -0.04268 1.65853 0.034046 2.50045 h -0.282306 s -0.02916 1.18874 1.04614 1.21291 c 1.07531 -0.024178 1.04615 -1.21291 1.04615 -1.21291 h -0.291754 c 0.076563 -0.841917 0.048707 -2.04314 0.034046 -2.50045 c 0.16567 -0.024017 0.177234 -0.166204 0.177234 -0.216802 v -0.285656 h 0.008634 l 1.34686 -0.309834 v -0.90148 l -0.830955 0.25363 l -0.563798 0.031705 V 51.3958 s -0.065974 -1.91456 -0.369946 -3.16655 c -0.153127 0.774505 -0.337693 1.78455 -0.337693 3.18464 v 10.0817 l -0.218612 0.01233 l -0.386725 -0.022418 V 51.3958 c 0.055874 -1.9634 0.540176 -3.5265 0.800165 -3.91736 c -0.118592 -0.338815 -0.147588 -0.31944 -0.318633 -0.31944 c -0.389332 0 -0.958505 3.45973 -0.958505 4.2368 v 10.0622 l -0.583834 -0.033786 l -0.830954 -0.253632 v 0.90148 l 1.3032 0.299747 v 0.295743 Z m 8.7523 -22.1239 c 0.539688 0.309834 0.615437 0.666744 0.58416 0.911568 c -0.044472 0.346342 -0.340136 0.680994 -0.687602 0.778508 l -0.028833 0.008006 l -0.01971 0.022097 c -0.010427 0.011526 -0.25266 0.286614 -0.216495 0.607816 l 0.0101 0.089028 h 3.1039 l 0.0101 -0.089028 c 0.036163 -0.321202 -0.205906 -0.59629 -0.21617 -0.607658 l -0.019873 -0.022258 l -0.028835 -0.008006 c -0.347955 -0.097674 -0.643782 -0.432647 -0.688254 -0.779148 c -0.031275 -0.244505 0.0448 -0.601254 0.584487 -0.910928 c 1.2022 -0.6882 1.00689 -1.27072 0.997927 -1.29522 l -0.02411 -0.06629 h -1.4055 c -0.603057 0 -0.66056 -0.20143 -0.66105 -0.20143 c -0.000162 0 -0.000162 0.00016 -0.000162 0.00016 l -0.01466 -0.1337 c 0.073142 -0.06485 0.19206 -0.221608 0.426147 -0.575315 c 0.485442 -0.731112 -0.52682 -2.36723 -0.57015 -2.43656 l -0.21568 -0.34506 l 0.027367 0.404146 c 0.039584 0.58268 -0.37353 1.27921 -0.372064 1.27905 c -0.548485 0.656816 0.300387 1.46703 0.50271 1.64444 l -0.002444 0.032666 l 0.029322 0.010568 l -0.012217 0.114967 c -0.000487 0.002082 -0.053593 0.206076 -0.662025 0.206076 H 72.7951 l -0.024272 0.06629 c -0.00896 0.024338 -0.20509 0.607018 0.997764 1.29522 Z m -17.883 0 c 0.539526 0.309834 0.615437 0.666744 0.583997 0.911568 c -0.044473 0.346342 -0.340137 0.680994 -0.687603 0.778508 l -0.028834 0.008006 l -0.01971 0.022257 c -0.010426 0.011366 -0.252496 0.286454 -0.216495 0.607657 l 0.0101 0.089027 h 3.10406 l 0.0101 -0.089027 c 0.036 -0.321203 -0.20607 -0.59629 -0.216332 -0.60766 l -0.019874 -0.022256 l -0.02867 -0.008005 c -0.348118 -0.097674 -0.643945 -0.432646 -0.688416 -0.779148 c -0.031277 -0.244505 0.044797 -0.601254 0.584486 -0.910927 c 1.2022 -0.6882 1.00689 -1.27072 0.99809 -1.29522 l -0.02411 -0.06629 H 57.8407 c -0.603056 0 -0.66056 -0.201432 -0.661212 -0.201432 l -0.01466 -0.13354 c 0.07314 -0.06485 0.191896 -0.221606 0.426146 -0.575313 c 0.485606 -0.731112 -0.526656 -2.36723 -0.569988 -2.43656 l -0.215842 -0.3449 l 0.02753 0.403986 c 0.039585 0.58268 -0.373693 1.2792 -0.372227 1.27904 c -0.548322 0.656816 0.300388 1.46703 0.50271 1.64444 l -0.002444 0.032666 l 0.029322 0.010568 l -0.012217 0.114967 c -0.00049 0.00208 -0.053594 0.206075 -0.661864 0.206075 h -1.40404 l -0.024272 0.06629 c -0.00896 0.024338 -0.205092 0.607018 0.997926 1.29522 v -2e-006 Z m 25.9047 6.31212 l -0.002444 0.043073 c -0.510855 9.04507 -0.88129 15.5804 -15.1052 22.8243 l -0.66056 0.335613 v 0.00144 l -0.001466 -0.00064 l -0.00163 0.00064 v -0.00144 l -0.66056 -0.335613 c -14.224 -7.24387 -14.5944 -13.7792 -15.1052 -22.8243 l -0.002443 -0.043073 v -0.043392 l 0.02525 -16.2268 h 31.4891 l 0.02525 16.2268 v 0.043392 Z" /> 
    </svg>