<?xml version="1.0" encoding="UTF-8" standalone="no"?>
<!-- Created with Inkscape (http://www.inkscape.org/) -->

<svg
   xmlns:dc="http://purl.org/dc/elements/1.1/"
   xmlns:cc="http://creativecommons.org/ns#"
   xmlns:rdf="http://www.w3.org/1999/02/22-rdf-syntax-ns#"
   xmlns:svg="http://www.w3.org/2000/svg"
   xmlns="http://www.w3.org/2000/svg"
   xmlns:sodipodi="http://sodipodi.sourceforge.net/DTD/sodipodi-0.dtd"
   xmlns:inkscape="http://www.inkscape.org/namespaces/inkscape"
   width="172.96191mm"
   height="52.211113mm"
   viewBox="0 0 612.85718 185.00001"
   id="svg4895"
   version="1.1"
   inkscape:version="0.91 r13725"
   sodipodi:docname="Grinblat.svg">
  <defs
     id="defs4897" />
  <sodipodi:namedview
     id="base"
     pagecolor="#ffffff"
     bordercolor="#666666"
     borderopacity="1.0"
     inkscape:pageopacity="0.0"
     inkscape:pageshadow="2"
     inkscape:zoom="0.70000001"
     inkscape:cx="295.82252"
     inkscape:cy="251.17567"
     inkscape:document-units="px"
     inkscape:current-layer="layer3"
     showgrid="false"
     fit-margin-top="0"
     fit-margin-left="0"
     fit-margin-right="0"
     fit-margin-bottom="0"
     inkscape:window-width="1301"
     inkscape:window-height="744"
     inkscape:window-x="65"
     inkscape:window-y="24"
     inkscape:window-maximized="1" />
  <metadata
     id="metadata4900">
    <rdf:RDF>
      <cc:Work
         rdf:about="">
        <dc:format>image/svg+xml</dc:format>
        <dc:type
           rdf:resource="http://purl.org/dc/dcmitype/StillImage" />
        <dc:title />
      </cc:Work>
    </rdf:RDF>
  </metadata>
  <g
     inkscape:groupmode="layer"
     id="layer4"
     inkscape:label="Layer 3"
     transform="translate(-7.8571429,-213.07649)" />
  <g
     inkscape:label="Layer 1"
     inkscape:groupmode="layer"
     id="layer1"
     style="display:inline"
     transform="translate(-7.8571429,-213.07649)">
    <g
       id="g5603"
       style="stroke:#8aff3c;stroke-opacity:1">
      <path
         sodipodi:nodetypes="caccacc"
         inkscape:connector-curvature="0"
         id="path5544"
         d="m 186.42857,230.93363 c 0,0 7.58732,36.11475 9.74792,54.41459 3.07099,26.01057 4.5378,78.44256 4.5378,78.44256 l 122.85714,-22.14286 c 0,0 -3.86407,-38.29026 -3.5366,-57.48554 C 320.3307,266.81904 325,232.3622 325,232.3622 l 2.14286,-4.28571"
         style="fill:none;fill-opacity:1;stroke:#8aff3c;stroke-width:2;stroke-miterlimit:4;stroke-dasharray:none;stroke-opacity:1" />
      <path
         inkscape:connector-curvature="0"
         id="path5546"
         d="M 200,365.21935 326.42857,230.93363 185,230.93363 325.71429,338.79078"
         style="fill:none;fill-opacity:1;stroke:#8aff3c;stroke-width:2;stroke-miterlimit:4;stroke-dasharray:none;stroke-opacity:1" />
      <path
         sodipodi:nodetypes="cac"
         inkscape:connector-curvature="0"
         id="path5548"
         d="m 412.85714,265.93363 c 0,0 31.62913,20.97751 45.31053,33.98888 C 473.96929,314.95025 500,350.21935 500,350.21935"
         style="fill:none;fill-opacity:1;stroke:#8aff3c;stroke-width:2;stroke-miterlimit:4;stroke-dasharray:none;stroke-opacity:1" />
      <path
         inkscape:connector-curvature="0"
         id="path5550"
         d="m 510.71429,249.50506 96.42857,16.42857"
         style="fill:none;fill-opacity:1;stroke:#8aff3c;stroke-width:2;stroke-miterlimit:4;stroke-dasharray:none;stroke-opacity:1" />
      <path
         inkscape:connector-curvature="0"
         id="path5577"
         d="m 68.571429,256.64792 -45,78.57143"
         style="fill:#00ff00;fill-opacity:1;stroke:#8aff3c;stroke-width:2;stroke-miterlimit:4;stroke-dasharray:none;stroke-opacity:1" />
    </g>
    <g
       id="g5597"
       style="stroke:#91bdff;stroke-opacity:1">
      <path
         sodipodi:nodetypes="cacacac"
         inkscape:connector-curvature="0"
         id="path5579"
         d="m 28.571429,331.64792 c 0,0 18.257356,-19.05464 25.187683,-30.17302 7.963914,-12.77657 18.383745,-41.25555 18.383745,-41.25555 0,0 31.524233,37.40566 49.567833,53.81224 22.91562,20.83658 74.0036,56.18776 74.0036,56.18776 0,0 -36.86533,10.02503 -55.79143,11.77492 C 125.00802,383.37328 95,380.93363 95,380.93363"
         style="fill:none;fill-opacity:1;stroke:#91bdff;stroke-width:2;stroke-miterlimit:4;stroke-dasharray:none;stroke-opacity:1" />
      <path
         sodipodi:nodetypes="caccc"
         inkscape:connector-curvature="0"
         id="path5581"
         d="m 72.142857,260.93363 c 0,0 11.264049,37.49594 14.703003,56.72353 3.521632,19.68984 6.011283,59.70504 6.011283,59.70504 L 29.285714,330.21935 196.42857,368.07649"
         style="fill:none;fill-opacity:1;stroke:#91bdff;stroke-width:2;stroke-miterlimit:4;stroke-dasharray:none;stroke-opacity:1" />
      <path
         sodipodi:nodetypes="csczcc"
         inkscape:connector-curvature="0"
         id="path5583"
         d="m 330,340.93363 c 0,0 30.06375,-18.29003 44.53321,-30.13477 13.97058,-11.43635 39.7525,-38.43666 39.7525,-38.43666 0,0 21.54506,29.09748 34.94215,41.82663 13.39709,12.72915 45.05785,33.88766 45.05785,33.88766 z"
         style="fill:none;fill-opacity:1;stroke:#91bdff;stroke-width:2;stroke-miterlimit:4;stroke-dasharray:none;stroke-opacity:1" />
      <path
         inkscape:connector-curvature="0"
         id="path5585"
         d="M 506.42857,245.93363 328.57143,228.07649"
         style="fill:none;fill-opacity:1;stroke:#91bdff;stroke-width:2;stroke-miterlimit:4;stroke-dasharray:none;stroke-opacity:1" />
    </g>
    <g
       id="g5591"
       style="stroke-width:2.00000018;stroke-miterlimit:4;stroke-dasharray:none">
      <path
         sodipodi:nodetypes="caccac"
         inkscape:connector-curvature="0"
         id="path5508"
         d="m 67.857144,254.50505 c 0,0 3.033511,44.23713 7.057628,65.99025 3.567366,19.28405 15.085232,56.8669 15.085232,56.8669 L 197.14286,366.64791 c 0,0 -10.70554,-53.92719 -13.1674,-81.25478 -1.75726,-19.50629 -1.11832,-58.74522 -1.11832,-58.74522"
         style="fill:none;fill-opacity:1;stroke:#ff0000;stroke-width:2.00000018;stroke-miterlimit:4;stroke-dasharray:none;stroke-linejoin:round" />
      <path
         sodipodi:nodetypes="cccac"
         inkscape:connector-curvature="0"
         id="path5510"
         d="M 90.000004,374.50505 C 92.857144,370.21934 182.85714,227.3622 182.85714,227.3622 L 70.000004,254.50505 c 0,0 43.519576,28.47338 63.088856,45.47534 C 155.59025,319.52978 195,364.50505 195,364.50505"
         style="fill:none;fill-opacity:1;stroke:#ff0000;stroke-width:2.00000018;stroke-miterlimit:4;stroke-dasharray:none;stroke-linejoin:round;stroke-linecap:round" />
      <path
         sodipodi:nodetypes="cscscc"
         inkscape:connector-curvature="0"
         id="path5536"
         d="m 328.57143,232.3622 c 0,0 3.18146,34.49493 2.89956,51.77951 -0.30992,19.00258 -5.04242,56.79192 -5.04242,56.79192 0,0 25.0897,-28.91941 40.31313,-41.77197 13.82419,-11.67125 46.82973,-31.79946 46.82973,-31.79946 z"
         style="fill:none;fill-opacity:1;stroke:#ff0000;stroke-width:2.00000018;stroke-miterlimit:4;stroke-dasharray:none;stroke-linejoin:round" />
      <path
         inkscape:connector-curvature="0"
         id="path5538"
         d="M 497.85714,348.79078 510,248.07649 l 0,0.71429"
         style="fill:none;fill-opacity:1;stroke:#ff0000;stroke-width:2.00000018;stroke-miterlimit:4;stroke-dasharray:none" />
    </g>
  </g>
  <g
     inkscape:groupmode="layer"
     id="layer3"
     inkscape:label="Layer 2"
     transform="translate(-7.8571429,-213.07649)">
    <ellipse
       style="fill:#000000;fill-opacity:1;stroke:#000000;stroke-width:2;stroke-miterlimit:4;stroke-dasharray:none"
       id="path5443"
       cx="70.35714"
       cy="255.21935"
       rx="7.5866575"
       ry="7.1428571" />
    <path
       style="fill:none;fill-rule:evenodd;stroke:#008080;stroke-width:10.00000095;stroke-linecap:butt;stroke-linejoin:miter;stroke-miterlimit:4;stroke-dasharray:none;stroke-opacity:1"
       d="m 24.686222,329.39121 60.609159,45.45686 0,0"
       id="path4162"
       inkscape:connector-curvature="0" />
    <ellipse
       style="fill:#000000;fill-opacity:1;stroke:#000000;stroke-width:2;stroke-miterlimit:4;stroke-dasharray:none"
       id="path5443-0"
       cx="90.714287"
       cy="376.64792"
       rx="7.5866575"
       ry="7.1428571" />
    <path
       style="fill:#00ff00;fill-rule:evenodd;stroke:#00ff00;stroke-width:10.00000089;stroke-linecap:butt;stroke-linejoin:miter;stroke-opacity:1;stroke-miterlimit:4;stroke-dasharray:none"
       d="m 186.14903,231.9064 140.91628,-1.51523"
       id="path4209"
       inkscape:connector-curvature="0" />
    <ellipse
       style="fill:#000000;fill-opacity:1;stroke:#000000;stroke-width:2;stroke-miterlimit:4;stroke-dasharray:none"
       id="path5443-3"
       cx="182.85715"
       cy="230.21936"
       rx="7.5866575"
       ry="7.1428571" />
    <ellipse
       style="fill:#000000;fill-opacity:1;stroke:#000000;stroke-width:2;stroke-miterlimit:4;stroke-dasharray:none"
       id="path5443-1"
       cx="197.85715"
       cy="366.64792"
       rx="7.5866575"
       ry="7.1428571" />
    <ellipse
       style="fill:#000000;fill-opacity:1;stroke:#000000;stroke-width:2;stroke-miterlimit:4;stroke-dasharray:none"
       id="path5443-19"
       cx="328.57144"
       cy="230.21936"
       rx="7.5866575"
       ry="7.1428571" />
    <path
       style="fill:#ff0000;fill-rule:evenodd;stroke:#ff0000;stroke-width:10.00000095;stroke-linecap:butt;stroke-linejoin:miter;stroke-miterlimit:4;stroke-dasharray:none;stroke-opacity:1"
       d="m 331.10592,336.96227 c 0,0 16.66752,-21.71828 35.35535,-36.87057 18.68782,-15.15228 45.45686,-32.32488 45.45686,-32.32488"
       id="path4211"
       inkscape:connector-curvature="0"
       sodipodi:nodetypes="csc" />
    <ellipse
       style="fill:#000000;fill-opacity:1;stroke:#000000;stroke-width:2;stroke-miterlimit:4;stroke-dasharray:none"
       id="path5443-17"
       cx="327.14285"
       cy="340.21936"
       rx="7.5866575"
       ry="7.1428571" />
    <ellipse
       style="fill:#000000;fill-opacity:1;stroke:#000000;stroke-width:2;stroke-miterlimit:4;stroke-dasharray:none"
       id="path5443-9"
       cx="412.85715"
       cy="266.64792"
       rx="7.5866575"
       ry="7.1428571" />
    <ellipse
       style="fill:#000000;fill-opacity:1;stroke:#000000;stroke-width:2;stroke-miterlimit:4;stroke-dasharray:none"
       id="path5443-2"
       cx="498.57144"
       cy="347.36221"
       rx="7.5866575"
       ry="7.1428571" />
    <ellipse
       style="fill:#000000;fill-opacity:1;stroke:#000000;stroke-width:2;stroke-miterlimit:4;stroke-dasharray:none"
       id="path5443-6"
       cx="509.28571"
       cy="248.79077"
       rx="7.5866575"
       ry="7.1428571" />
    <ellipse
       style="fill:#000000;fill-opacity:1;stroke:#000000;stroke-width:2;stroke-miterlimit:4;stroke-dasharray:none"
       id="path5443-01"
       cx="605"
       cy="264.50507"
       rx="7.5866575"
       ry="7.1428571" />
    <ellipse
       style="fill:#000000;fill-opacity:1;stroke:#000000;stroke-width:2;stroke-miterlimit:4;stroke-dasharray:none"
       id="path5443-7"
       cx="24.999998"
       cy="330.21936"
       rx="7.5866575"
       ry="7.1428571" />
  </g>
</svg>
