<?xml version="1.0" encoding="UTF-8" standalone="no"?>
<!-- Created with Inkscape (http://www.inkscape.org/) -->

<svg
   xmlns:dc="http://purl.org/dc/elements/1.1/"
   xmlns:cc="http://creativecommons.org/ns#"
   xmlns:rdf="http://www.w3.org/1999/02/22-rdf-syntax-ns#"
   xmlns:svg="http://www.w3.org/2000/svg"
   xmlns="http://www.w3.org/2000/svg"
   xmlns:sodipodi="http://sodipodi.sourceforge.net/DTD/sodipodi-0.dtd"
   xmlns:inkscape="http://www.inkscape.org/namespaces/inkscape"
   width="95.722206mm"
   height="56.081707mm"
   viewBox="0 0 339.17315 198.71471"
   id="svg4629"
   version="1.1"
   inkscape:version="0.91 r13725"
   sodipodi:docname="StrongRamseyGame.svg">
  <defs
     id="defs4631" />
  <sodipodi:namedview
     id="base"
     pagecolor="#ffffff"
     bordercolor="#666666"
     borderopacity="1.0"
     inkscape:pageopacity="0.0"
     inkscape:pageshadow="2"
     inkscape:zoom="1.4"
     inkscape:cx="54.334067"
     inkscape:cy="80.697194"
     inkscape:document-units="px"
     inkscape:current-layer="layer1"
     showgrid="false"
     fit-margin-top="0"
     fit-margin-left="20"
     fit-margin-right="20"
     fit-margin-bottom="0"
     inkscape:window-width="1301"
     inkscape:window-height="744"
     inkscape:window-x="65"
     inkscape:window-y="24"
     inkscape:window-maximized="1" />
  <metadata
     id="metadata4634">
    <rdf:RDF>
      <cc:Work
         rdf:about="">
        <dc:format>image/svg+xml</dc:format>
        <dc:type
           rdf:resource="http://purl.org/dc/dcmitype/StillImage" />
        <dc:title></dc:title>
      </cc:Work>
    </rdf:RDF>
  </metadata>
  <g
     inkscape:label="Layer 1"
     inkscape:groupmode="layer"
     id="layer1"
     transform="translate(-33.270569,-330.14771)">
    <g
       id="g12"
       transform="matrix(1.25,0,0,-1.25,204.27607,424.64289)">
      <g
         id="g14">
        <g
           id="g16">
          <path
             d="m 56.69362,0 c 0,13.32733 -4.69824,26.23343 -13.26422,36.44217"
             style="fill:none;stroke:#000000;stroke-width:0.3985;stroke-linecap:butt;stroke-linejoin:miter;stroke-miterlimit:10;stroke-dasharray:none;stroke-opacity:1"
             id="path18"
             inkscape:connector-curvature="0" />
          <path
             d="M 43.4294,36.44217 C 34.86342,46.65092 22.96948,53.51878 9.84454,55.83286"
             style="fill:none;stroke:#000000;stroke-width:0.3985;stroke-linecap:butt;stroke-linejoin:miter;stroke-miterlimit:10;stroke-dasharray:none;stroke-opacity:1"
             id="path20"
             inkscape:connector-curvature="0" />
          <path
             d="M 9.84454,55.83286 C -3.28036,58.14694 -16.80496,55.7619 -28.3468,49.09824"
             style="fill:none;stroke:#000000;stroke-width:0.3985;stroke-linecap:butt;stroke-linejoin:miter;stroke-miterlimit:10;stroke-dasharray:none;stroke-opacity:1"
             id="path22"
             inkscape:connector-curvature="0" />
          <path
             d="M -28.3468,49.09824 C -39.88864,42.43457 -48.71674,31.9135 -53.27483,19.39066"
             style="fill:none;stroke:#000000;stroke-width:0.3985;stroke-linecap:butt;stroke-linejoin:miter;stroke-miterlimit:10;stroke-dasharray:none;stroke-opacity:1"
             id="path24"
             inkscape:connector-curvature="0" />
          <path
             d="m -53.27483,19.39066 c -4.55809,-12.52283 -4.55809,-26.25849 0,-38.78132"
             style="fill:none;stroke:#000000;stroke-width:0.3985;stroke-linecap:butt;stroke-linejoin:miter;stroke-miterlimit:10;stroke-dasharray:none;stroke-opacity:1"
             id="path26"
             inkscape:connector-curvature="0" />
          <path
             d="m -53.27483,-19.39066 c 4.55809,-12.52284 13.38619,-23.04391 24.92803,-29.70758"
             style="fill:none;stroke:#000000;stroke-width:0.3985;stroke-linecap:butt;stroke-linejoin:miter;stroke-miterlimit:10;stroke-dasharray:none;stroke-opacity:1"
             id="path28"
             inkscape:connector-curvature="0" />
          <path
             d="m -28.3468,-49.09824 c 11.54184,-6.66366 25.06644,-9.0487 38.19134,-6.73462"
             style="fill:none;stroke:#000000;stroke-width:0.3985;stroke-linecap:butt;stroke-linejoin:miter;stroke-miterlimit:10;stroke-dasharray:none;stroke-opacity:1"
             id="path30"
             inkscape:connector-curvature="0" />
          <path
             d="M 43.4294,-36.44217 C 51.99538,-26.23343 56.69362,-13.32733 56.69362,0"
             style="fill:none;stroke:#000000;stroke-width:0.3985;stroke-linecap:butt;stroke-linejoin:miter;stroke-miterlimit:10;stroke-dasharray:none;stroke-opacity:1"
             id="path32"
             inkscape:connector-curvature="0" />
          <g
             id="g34">
            <path
               d="m 11.8371,-55.83286 c 0,1.10047 -0.89208,1.99256 -1.99256,1.99256 -1.10046,0 -1.99255,-0.89209 -1.99255,-1.99256 0,-1.10047 0.89209,-1.99255 1.99255,-1.99255 1.10048,0 1.99256,0.89208 1.99256,1.99255 z"
               style="fill:#000000;fill-opacity:1;fill-rule:nonzero;stroke:#000000;stroke-width:0.3985;stroke-linecap:butt;stroke-linejoin:miter;stroke-miterlimit:10;stroke-dasharray:none;stroke-opacity:1"
               id="path36"
               inkscape:connector-curvature="0" />
          </g>
          <g
             id="g38">
            <g
               id="g40"
               transform="translate(8.149,-73.979)">
              <g
                 id="g42">
                <g
                   id="g44"
                   transform="translate(-98.222,-19.931)">
                  <text
                     transform="matrix(1,0,0,-1,98.222,19.931)"
                     style="font-variant:normal;font-weight:normal;font-size:9.96259975px;font-family:CMMI10;-inkscape-font-specification:CMMI10;writing-mode:lr-tb;fill:#000000;fill-opacity:1;fill-rule:nonzero;stroke:none"
                     id="text46">
                    <tspan
                       x="0"
                       y="0"
                       id="tspan48">v</tspan>
                  </text>
                  <text
                     transform="matrix(1,0,0,-1,103.051,18.437)"
                     style="font-variant:normal;font-weight:normal;font-size:6.97380018px;font-family:CMR7;-inkscape-font-specification:CMR7;writing-mode:lr-tb;fill:#000000;fill-opacity:1;fill-rule:nonzero;stroke:none"
                     id="text50">
                    <tspan
                       x="0"
                       y="0"
                       id="tspan52">1</tspan>
                  </text>
                  <g
                     id="g54"
                     transform="translate(98.222,19.931)" />
                </g>
              </g>
              <g
                 id="g56"
                 transform="translate(-8.149,73.979)" />
            </g>
          </g>
          <g
             id="g58">
            <path
               d="m -26.35425,-49.09824 c 0,1.10048 -0.89209,1.99256 -1.99255,1.99256 -1.10048,0 -1.99256,-0.89208 -1.99256,-1.99256 0,-1.10046 0.89208,-1.99255 1.99256,-1.99255 1.10046,0 1.99255,0.89209 1.99255,1.99255 z"
               style="fill:#000000;fill-opacity:1;fill-rule:nonzero;stroke:#000000;stroke-width:0.3985;stroke-linecap:butt;stroke-linejoin:miter;stroke-miterlimit:10;stroke-dasharray:none;stroke-opacity:1"
               id="path60"
               inkscape:connector-curvature="0" />
          </g>
          <g
             id="g62">
            <g
               id="g64"
               transform="translate(-41.5,-65.224)">
              <g
                 id="g66">
                <g
                   id="g68"
                   transform="translate(-48.573,-28.686)">
                  <text
                     transform="matrix(1,0,0,-1,48.573,28.686)"
                     style="font-variant:normal;font-weight:normal;font-size:9.96259975px;font-family:CMMI10;-inkscape-font-specification:CMMI10;writing-mode:lr-tb;fill:#000000;fill-opacity:1;fill-rule:nonzero;stroke:none"
                     id="text70">
                    <tspan
                       x="0"
                       y="0"
                       id="tspan72">v</tspan>
                  </text>
                  <text
                     transform="matrix(1,0,0,-1,53.403,27.192)"
                     style="font-variant:normal;font-weight:normal;font-size:6.97380018px;font-family:CMR7;-inkscape-font-specification:CMR7;writing-mode:lr-tb;fill:#000000;fill-opacity:1;fill-rule:nonzero;stroke:none"
                     id="text74">
                    <tspan
                       x="0"
                       y="0"
                       id="tspan76">2</tspan>
                  </text>
                  <g
                     id="g78"
                     transform="translate(48.573,28.686)" />
                </g>
              </g>
              <g
                 id="g80"
                 transform="translate(41.5,65.224)" />
            </g>
          </g>
          <g
             id="g82">
            <path
               d="m -51.28227,-19.39066 c 0,1.10047 -0.89208,1.99256 -1.99256,1.99256 -1.10046,0 -1.99255,-0.89209 -1.99255,-1.99256 0,-1.10047 0.89209,-1.99255 1.99255,-1.99255 1.10048,0 1.99256,0.89208 1.99256,1.99255 z"
               style="fill:#000000;fill-opacity:1;fill-rule:nonzero;stroke:#000000;stroke-width:0.3985;stroke-linecap:butt;stroke-linejoin:miter;stroke-miterlimit:10;stroke-dasharray:none;stroke-opacity:1"
               id="path84"
               inkscape:connector-curvature="0" />
          </g>
          <g
             id="g86">
            <g
               id="g88"
               transform="translate(-73.905,-26.605)">
              <g
                 id="g90">
                <g
                   id="g92"
                   transform="translate(-16.168,-67.305)">
                  <text
                     transform="matrix(1,0,0,-1,16.168,67.305)"
                     style="font-variant:normal;font-weight:normal;font-size:9.96259975px;font-family:CMMI10;-inkscape-font-specification:CMMI10;writing-mode:lr-tb;fill:#000000;fill-opacity:1;fill-rule:nonzero;stroke:none"
                     id="text94">
                    <tspan
                       x="0"
                       y="0"
                       id="tspan96">v</tspan>
                  </text>
                  <text
                     transform="matrix(1,0,0,-1,20.997,65.811)"
                     style="font-variant:normal;font-weight:normal;font-size:6.97380018px;font-family:CMR7;-inkscape-font-specification:CMR7;writing-mode:lr-tb;fill:#000000;fill-opacity:1;fill-rule:nonzero;stroke:none"
                     id="text98">
                    <tspan
                       x="0"
                       y="0"
                       id="tspan100">3</tspan>
                  </text>
                  <g
                     id="g102"
                     transform="translate(16.168,67.305)" />
                </g>
              </g>
              <g
                 id="g104"
                 transform="translate(73.905,26.605)" />
            </g>
          </g>
          <g
             id="g106">
            <path
               d="m -51.28227,19.39066 c 0,1.10047 -0.89208,1.99255 -1.99256,1.99255 -1.10046,0 -1.99255,-0.89208 -1.99255,-1.99255 0,-1.10047 0.89209,-1.99256 1.99255,-1.99256 1.10048,0 1.99256,0.89209 1.99256,1.99256 z"
               style="fill:#000000;fill-opacity:1;fill-rule:nonzero;stroke:#000000;stroke-width:0.3985;stroke-linecap:butt;stroke-linejoin:miter;stroke-miterlimit:10;stroke-dasharray:none;stroke-opacity:1"
               id="path108"
               inkscape:connector-curvature="0" />
          </g>
          <g
             id="g110">
            <g
               id="g112"
               transform="translate(-73.905,23.81)">
              <g
                 id="g114">
                <g
                   id="g116"
                   transform="translate(-16.168,-117.72)">
                  <text
                     transform="matrix(1,0,0,-1,16.168,117.72)"
                     style="font-variant:normal;font-weight:normal;font-size:9.96259975px;font-family:CMMI10;-inkscape-font-specification:CMMI10;writing-mode:lr-tb;fill:#000000;fill-opacity:1;fill-rule:nonzero;stroke:none"
                     id="text118">
                    <tspan
                       x="0"
                       y="0"
                       id="tspan120">v</tspan>
                  </text>
                  <text
                     transform="matrix(1,0,0,-1,20.997,116.226)"
                     style="font-variant:normal;font-weight:normal;font-size:6.97380018px;font-family:CMR7;-inkscape-font-specification:CMR7;writing-mode:lr-tb;fill:#000000;fill-opacity:1;fill-rule:nonzero;stroke:none"
                     id="text122">
                    <tspan
                       x="0"
                       y="0"
                       id="tspan124">4</tspan>
                  </text>
                  <g
                     id="g126"
                     transform="translate(16.168,117.72)" />
                </g>
              </g>
              <g
                 id="g128"
                 transform="translate(73.905,-23.81)" />
            </g>
          </g>
          <g
             id="g130">
            <path
               d="m -26.35425,49.09824 c 0,1.10046 -0.89209,1.99255 -1.99255,1.99255 -1.10048,0 -1.99256,-0.89209 -1.99256,-1.99255 0,-1.10048 0.89208,-1.99256 1.99256,-1.99256 1.10046,0 1.99255,0.89208 1.99255,1.99256 z"
               style="fill:#000000;fill-opacity:1;fill-rule:nonzero;stroke:#000000;stroke-width:0.3985;stroke-linecap:butt;stroke-linejoin:miter;stroke-miterlimit:10;stroke-dasharray:none;stroke-opacity:1"
               id="path132"
               inkscape:connector-curvature="0" />
          </g>
          <g
             id="g134">
            <g
               id="g136"
               transform="translate(-41.5,62.429)">
              <g
                 id="g138">
                <g
                   id="g140"
                   transform="translate(-48.573,-156.339)">
                  <text
                     transform="matrix(1,0,0,-1,48.573,156.339)"
                     style="font-variant:normal;font-weight:normal;font-size:9.96259975px;font-family:CMMI10;-inkscape-font-specification:CMMI10;writing-mode:lr-tb;fill:#000000;fill-opacity:1;fill-rule:nonzero;stroke:none"
                     id="text142">
                    <tspan
                       x="0"
                       y="0"
                       id="tspan144">v</tspan>
                  </text>
                  <text
                     transform="matrix(1,0,0,-1,53.403,154.845)"
                     style="font-variant:normal;font-weight:normal;font-size:6.97380018px;font-family:CMR7;-inkscape-font-specification:CMR7;writing-mode:lr-tb;fill:#000000;fill-opacity:1;fill-rule:nonzero;stroke:none"
                     id="text146">
                    <tspan
                       x="0"
                       y="0"
                       id="tspan148">5</tspan>
                  </text>
                  <g
                     id="g150"
                     transform="translate(48.573,156.339)" />
                </g>
              </g>
              <g
                 id="g152"
                 transform="translate(41.5,-62.429)" />
            </g>
          </g>
          <g
             id="g154">
            <path
               d="m 11.8371,55.83286 c 0,1.10047 -0.89208,1.99255 -1.99256,1.99255 -1.10046,0 -1.99255,-0.89208 -1.99255,-1.99255 0,-1.10047 0.89209,-1.99256 1.99255,-1.99256 1.10048,0 1.99256,0.89209 1.99256,1.99256 z"
               style="fill:#000000;fill-opacity:1;fill-rule:nonzero;stroke:#000000;stroke-width:0.3985;stroke-linecap:butt;stroke-linejoin:miter;stroke-miterlimit:10;stroke-dasharray:none;stroke-opacity:1"
               id="path156"
               inkscape:connector-curvature="0" />
          </g>
          <g
             id="g158">
            <g
               id="g160"
               transform="translate(8.149,71.184)">
              <g
                 id="g162">
                <g
                   id="g164"
                   transform="translate(-98.222,-165.094)">
                  <text
                     transform="matrix(1,0,0,-1,98.222,165.094)"
                     style="font-variant:normal;font-weight:normal;font-size:9.96259975px;font-family:CMMI10;-inkscape-font-specification:CMMI10;writing-mode:lr-tb;fill:#000000;fill-opacity:1;fill-rule:nonzero;stroke:none"
                     id="text166">
                    <tspan
                       x="0"
                       y="0"
                       id="tspan168">v</tspan>
                  </text>
                  <text
                     transform="matrix(1,0,0,-1,103.051,163.6)"
                     style="font-variant:normal;font-weight:normal;font-size:6.97380018px;font-family:CMR7;-inkscape-font-specification:CMR7;writing-mode:lr-tb;fill:#000000;fill-opacity:1;fill-rule:nonzero;stroke:none"
                     id="text170">
                    <tspan
                       x="0"
                       y="0"
                       id="tspan172">6</tspan>
                  </text>
                  <g
                     id="g174"
                     transform="translate(98.222,165.094)" />
                </g>
              </g>
              <g
                 id="g176"
                 transform="translate(-8.149,-71.184)" />
            </g>
          </g>
          <g
             id="g178">
            <path
               d="m 45.42195,36.44217 c 0,1.10048 -0.89207,1.99255 -1.99255,1.99255 -1.10047,0 -1.99256,-0.89207 -1.99256,-1.99255 0,-1.10047 0.89209,-1.99255 1.99256,-1.99255 1.10048,0 1.99255,0.89208 1.99255,1.99255 z"
               style="fill:#000000;fill-opacity:1;fill-rule:nonzero;stroke:#000000;stroke-width:0.3985;stroke-linecap:butt;stroke-linejoin:miter;stroke-miterlimit:10;stroke-dasharray:none;stroke-opacity:1"
               id="path180"
               inkscape:connector-curvature="0" />
          </g>
          <g
             id="g182">
            <g
               id="g184"
               transform="translate(51.808,45.976)">
              <g
                 id="g186">
                <g
                   id="g188"
                   transform="translate(-141.881,-139.886)">
                  <text
                     transform="matrix(1,0,0,-1,141.881,139.886)"
                     style="font-variant:normal;font-weight:normal;font-size:9.96259975px;font-family:CMMI10;-inkscape-font-specification:CMMI10;writing-mode:lr-tb;fill:#000000;fill-opacity:1;fill-rule:nonzero;stroke:none"
                     id="text190">
                    <tspan
                       x="0"
                       y="0"
                       id="tspan192">v</tspan>
                  </text>
                  <text
                     transform="matrix(1,0,0,-1,146.711,138.392)"
                     style="font-variant:normal;font-weight:normal;font-size:6.97380018px;font-family:CMR7;-inkscape-font-specification:CMR7;writing-mode:lr-tb;fill:#000000;fill-opacity:1;fill-rule:nonzero;stroke:none"
                     id="text194">
                    <tspan
                       x="0"
                       y="0"
                       id="tspan196">7</tspan>
                  </text>
                  <g
                     id="g198"
                     transform="translate(141.881,139.886)" />
                </g>
              </g>
              <g
                 id="g200"
                 transform="translate(-51.808,-45.976)" />
            </g>
          </g>
          <g
             id="g202">
            <path
               d="m 58.68617,0 c 0,1.10046 -0.89209,1.99255 -1.99255,1.99255 -1.10048,0 -1.99255,-0.89209 -1.99255,-1.99255 0,-1.10046 0.89207,-1.99255 1.99255,-1.99255 1.10046,0 1.99255,0.89209 1.99255,1.99255 z"
               style="fill:#000000;fill-opacity:1;fill-rule:nonzero;stroke:#000000;stroke-width:0.3985;stroke-linecap:butt;stroke-linejoin:miter;stroke-miterlimit:10;stroke-dasharray:none;stroke-opacity:1"
               id="path204"
               inkscape:connector-curvature="0" />
          </g>
          <g
             id="g206">
            <g
               id="g208"
               transform="translate(69.052,-1.398)">
              <g
                 id="g210">
                <g
                   id="g212"
                   transform="translate(-159.125,-92.512)">
                  <text
                     transform="matrix(1,0,0,-1,159.125,92.512)"
                     style="font-variant:normal;font-weight:normal;font-size:9.96259975px;font-family:CMMI10;-inkscape-font-specification:CMMI10;writing-mode:lr-tb;fill:#000000;fill-opacity:1;fill-rule:nonzero;stroke:none"
                     id="text214">
                    <tspan
                       x="0"
                       y="0"
                       id="tspan216">v</tspan>
                  </text>
                  <text
                     transform="matrix(1,0,0,-1,163.954,91.018)"
                     style="font-variant:normal;font-weight:normal;font-size:6.97380018px;font-family:CMR7;-inkscape-font-specification:CMR7;writing-mode:lr-tb;fill:#000000;fill-opacity:1;fill-rule:nonzero;stroke:none"
                     id="text218">
                    <tspan
                       x="0"
                       y="0"
                       id="tspan220">8</tspan>
                  </text>
                  <g
                     id="g222"
                     transform="translate(159.125,92.512)" />
                </g>
              </g>
              <g
                 id="g224"
                 transform="translate(-69.052,1.398)" />
            </g>
          </g>
          <g
             id="g226">
            <path
               d="m 45.42195,-36.44217 c 0,1.10047 -0.89207,1.99255 -1.99255,1.99255 -1.10047,0 -1.99256,-0.89208 -1.99256,-1.99255 0,-1.10048 0.89209,-1.99255 1.99256,-1.99255 1.10048,0 1.99255,0.89207 1.99255,1.99255 z"
               style="fill:#000000;fill-opacity:1;fill-rule:nonzero;stroke:#000000;stroke-width:0.3985;stroke-linecap:butt;stroke-linejoin:miter;stroke-miterlimit:10;stroke-dasharray:none;stroke-opacity:1"
               id="path228"
               inkscape:connector-curvature="0" />
          </g>
          <g
             id="g230">
            <g
               id="g232"
               transform="translate(51.808,-48.771)">
              <g
                 id="g234">
                <g
                   id="g236"
                   transform="translate(-141.881,-45.139)">
                  <text
                     transform="matrix(1,0,0,-1,141.881,45.139)"
                     style="font-variant:normal;font-weight:normal;font-size:9.96259975px;font-family:CMMI10;-inkscape-font-specification:CMMI10;writing-mode:lr-tb;fill:#000000;fill-opacity:1;fill-rule:nonzero;stroke:none"
                     id="text238">
                    <tspan
                       x="0"
                       y="0"
                       id="tspan240">v</tspan>
                  </text>
                  <text
                     transform="matrix(1,0,0,-1,146.711,43.644)"
                     style="font-variant:normal;font-weight:normal;font-size:6.97380018px;font-family:CMR7;-inkscape-font-specification:CMR7;writing-mode:lr-tb;fill:#000000;fill-opacity:1;fill-rule:nonzero;stroke:none"
                     id="text242">
                    <tspan
                       x="0"
                       y="0"
                       id="tspan244">9</tspan>
                  </text>
                  <g
                     id="g246"
                     transform="translate(141.881,45.139)" />
                </g>
              </g>
              <g
                 id="g248"
                 transform="translate(-51.808,48.771)" />
            </g>
          </g>
          <g
             id="g250">
            <path
               d="M 1.99255,0 C 1.99255,1.10046 1.10046,1.99255 0,1.99255 -1.10046,1.99255 -1.99255,1.10046 -1.99255,0 c 0,-1.10046 0.89209,-1.99255 1.99255,-1.99255 1.10046,0 1.99255,0.89209 1.99255,1.99255 z"
               style="fill:#000000;fill-opacity:1;fill-rule:nonzero;stroke:#000000;stroke-width:0.3985;stroke-linecap:butt;stroke-linejoin:miter;stroke-miterlimit:10;stroke-dasharray:none;stroke-opacity:1"
               id="path252"
               inkscape:connector-curvature="0" />
          </g>
          <g
             id="g254">
            <g
               id="g256"
               transform="translate(-2.536,12.029)">
              <g
                 id="g258">
                <g
                   id="g260"
                   transform="translate(-87.537,-105.939)">
                  <text
                     transform="matrix(1,0,0,-1,87.537,105.939)"
                     style="font-variant:normal;font-weight:normal;font-size:9.96259975px;font-family:CMMI10;-inkscape-font-specification:CMMI10;writing-mode:lr-tb;fill:#000000;fill-opacity:1;fill-rule:nonzero;stroke:none"
                     id="text262">
                    <tspan
                       x="0"
                       y="0"
                       id="tspan264">z</tspan>
                  </text>
                  <g
                     id="g266"
                     transform="translate(87.537,105.939)" />
                </g>
              </g>
              <g
                 id="g268"
                 transform="translate(2.536,-12.029)" />
            </g>
          </g>
          <g
             id="g270">
            <path
               d="m 14.82593,-55.83286 c 0,2.75118 -2.2302,4.98139 -4.98139,4.98139 -2.75117,0 -4.98138,-2.23021 -4.98138,-4.98139 0,-2.75119 2.23021,-4.98138 4.98138,-4.98138 2.75119,0 4.98139,2.23019 4.98139,4.98138 z"
               style="fill:none;stroke:#ff0000;stroke-width:0.3985;stroke-linecap:butt;stroke-linejoin:miter;stroke-miterlimit:10;stroke-dasharray:none;stroke-opacity:1"
               id="path272"
               inkscape:connector-curvature="0" />
          </g>
          <g
             id="g274">
            <path
               d="m -48.29344,-19.39066 c 0,2.75118 -2.23021,4.98139 -4.98139,4.98139 -2.75117,0 -4.98138,-2.23021 -4.98138,-4.98139 0,-2.75119 2.23021,-4.98138 4.98138,-4.98138 2.75118,0 4.98139,2.23019 4.98139,4.98138 z"
               style="fill:none;stroke:#ff0000;stroke-width:0.3985;stroke-linecap:butt;stroke-linejoin:miter;stroke-miterlimit:10;stroke-dasharray:none;stroke-opacity:1"
               id="path276"
               inkscape:connector-curvature="0" />
          </g>
          <g
             id="g278">
            <path
               d="m -23.36542,49.09824 c 0,2.75117 -2.23021,4.98138 -4.98138,4.98138 -2.75118,0 -4.98139,-2.23021 -4.98139,-4.98138 0,-2.75118 2.23021,-4.98139 4.98139,-4.98139 2.75117,0 4.98138,2.23021 4.98138,4.98139 z"
               style="fill:none;stroke:#ff0000;stroke-width:0.3985;stroke-linecap:butt;stroke-linejoin:miter;stroke-miterlimit:10;stroke-dasharray:none;stroke-opacity:1"
               id="path280"
               inkscape:connector-curvature="0" />
          </g>
          <g
             id="g282">
            <path
               d="m 61.675,0 c 0,2.75117 -2.2302,4.98138 -4.98138,4.98138 -2.75119,0 -4.98139,-2.23021 -4.98139,-4.98138 0,-2.75117 2.2302,-4.98138 4.98139,-4.98138 2.75118,0 4.98138,2.23021 4.98138,4.98138 z"
               style="fill:none;stroke:#ff0000;stroke-width:0.3985;stroke-linecap:butt;stroke-linejoin:miter;stroke-miterlimit:10;stroke-dasharray:none;stroke-opacity:1"
               id="path284"
               inkscape:connector-curvature="0" />
          </g>
          <g
             id="g286">
            <path
               d="M 4.98138,0 C 4.98138,2.75117 2.75117,4.98138 0,4.98138 -2.75117,4.98138 -4.98138,2.75117 -4.98138,0 c 0,-2.75117 2.23021,-4.98138 4.98138,-4.98138 2.75117,0 4.98138,2.23021 4.98138,4.98138 z"
               style="fill:none;stroke:#ff0000;stroke-width:0.3985;stroke-linecap:butt;stroke-linejoin:miter;stroke-miterlimit:10;stroke-dasharray:none;stroke-opacity:1"
               id="path288"
               inkscape:connector-curvature="0" />
          </g>
          <g
             id="g290">
            <path
               d="m -21.37286,-49.09824 c 0,3.85166 -3.12229,6.97394 -6.97394,6.97394 -3.85166,0 -6.97394,-3.12228 -6.97394,-6.97394 0,-3.85163 3.12228,-6.97393 6.97394,-6.97393 3.85165,0 6.97394,3.1223 6.97394,6.97393 z"
               style="fill:none;stroke:#00ff00;stroke-width:0.3985;stroke-linecap:butt;stroke-linejoin:miter;stroke-miterlimit:10;stroke-dasharray:none;stroke-opacity:1"
               id="path292"
               inkscape:connector-curvature="0" />
          </g>
          <g
             id="g294">
            <path
               d="m -46.30089,19.39066 c 0,3.85165 -3.12228,6.97394 -6.97394,6.97394 -3.85165,0 -6.97393,-3.12229 -6.97393,-6.97394 0,-3.85164 3.12228,-6.97394 6.97393,-6.97394 3.85166,0 6.97394,3.1223 6.97394,6.97394 z"
               style="fill:none;stroke:#00ff00;stroke-width:0.3985;stroke-linecap:butt;stroke-linejoin:miter;stroke-miterlimit:10;stroke-dasharray:none;stroke-opacity:1"
               id="path296"
               inkscape:connector-curvature="0" />
          </g>
          <g
             id="g298">
            <path
               d="m 50.40334,36.44217 c 0,3.85165 -3.12229,6.97393 -6.97394,6.97393 -3.85166,0 -6.97394,-3.12228 -6.97394,-6.97393 0,-3.85164 3.12228,-6.97394 6.97394,-6.97394 3.85165,0 6.97394,3.1223 6.97394,6.97394 z"
               style="fill:none;stroke:#00ff00;stroke-width:0.3985;stroke-linecap:butt;stroke-linejoin:miter;stroke-miterlimit:10;stroke-dasharray:none;stroke-opacity:1"
               id="path300"
               inkscape:connector-curvature="0" />
          </g>
          <g
             id="g302">
            <path
               d="m 50.40334,-36.44217 c 0,3.85164 -3.12229,6.97394 -6.97394,6.97394 -3.85166,0 -6.97394,-3.1223 -6.97394,-6.97394 0,-3.85165 3.12228,-6.97393 6.97394,-6.97393 3.85165,0 6.97394,3.12228 6.97394,6.97393 z"
               style="fill:none;stroke:#00ff00;stroke-width:0.3985;stroke-linecap:butt;stroke-linejoin:miter;stroke-miterlimit:10;stroke-dasharray:none;stroke-opacity:1"
               id="path304"
               inkscape:connector-curvature="0" />
          </g>
          <g
             id="g306">
            <path
               d="m 6.97394,0 c 0,3.85164 -3.1223,6.97394 -6.97394,6.97394 -3.85164,0 -6.97394,-3.1223 -6.97394,-6.97394 0,-3.85164 3.1223,-6.97394 6.97394,-6.97394 3.85164,0 6.97394,3.1223 6.97394,6.97394 z"
               style="fill:none;stroke:#00ff00;stroke-width:0.3985;stroke-linecap:butt;stroke-linejoin:miter;stroke-miterlimit:10;stroke-dasharray:none;stroke-opacity:1"
               id="path308"
               inkscape:connector-curvature="0" />
          </g>
          <g
             id="g310">
            <path
               d="m 18.81104,-55.83286 c 0,4.95212 -4.01436,8.9665 -8.9665,8.9665 -4.95211,0 -8.96649,-4.01438 -8.96649,-8.9665 0,-4.95213 4.01438,-8.96649 8.96649,-8.96649 4.95214,0 8.9665,4.01436 8.9665,8.96649 z"
               style="fill:none;stroke:#0000ff;stroke-width:0.3985;stroke-linecap:butt;stroke-linejoin:miter;stroke-miterlimit:10;stroke-dasharray:none;stroke-opacity:1"
               id="path312"
               inkscape:connector-curvature="0" />
          </g>
          <g
             id="g314">
            <path
               d="m 52.39589,-36.44217 c 0,4.95212 -4.01437,8.96649 -8.96649,8.96649 -4.95212,0 -8.9665,-4.01437 -8.9665,-8.96649 0,-4.95213 4.01438,-8.96649 8.9665,-8.96649 4.95212,0 8.96649,4.01436 8.96649,8.96649 z"
               style="fill:none;stroke:#0000ff;stroke-width:0.3985;stroke-linecap:butt;stroke-linejoin:miter;stroke-miterlimit:10;stroke-dasharray:none;stroke-opacity:1"
               id="path316"
               inkscape:connector-curvature="0" />
          </g>
          <g
             id="g318">
            <path
               d="m 65.66011,0 c 0,4.95212 -4.01437,8.96649 -8.96649,8.96649 -4.95213,0 -8.96649,-4.01437 -8.96649,-8.96649 0,-4.95212 4.01436,-8.96649 8.96649,-8.96649 4.95212,0 8.96649,4.01437 8.96649,8.96649 z"
               style="fill:none;stroke:#0000ff;stroke-width:0.3985;stroke-linecap:butt;stroke-linejoin:miter;stroke-miterlimit:10;stroke-dasharray:none;stroke-opacity:1"
               id="path320"
               inkscape:connector-curvature="0" />
          </g>
          <g
             id="g322">
            <path
               d="m 18.81104,55.83286 c 0,4.95213 -4.01436,8.96649 -8.9665,8.96649 -4.95211,0 -8.96649,-4.01436 -8.96649,-8.96649 0,-4.95212 4.01438,-8.9665 8.96649,-8.9665 4.95214,0 8.9665,4.01438 8.9665,8.9665 z"
               style="fill:none;stroke:#0000ff;stroke-width:0.3985;stroke-linecap:butt;stroke-linejoin:miter;stroke-miterlimit:10;stroke-dasharray:none;stroke-opacity:1"
               id="path324"
               inkscape:connector-curvature="0" />
          </g>
          <g
             id="g326">
            <path
               d="m -44.30833,19.39066 c 0,4.95213 -4.01438,8.96649 -8.9665,8.96649 -4.95211,0 -8.96649,-4.01436 -8.96649,-8.96649 0,-4.95212 4.01438,-8.9665 8.96649,-8.9665 4.95212,0 8.9665,4.01438 8.9665,8.9665 z"
               style="fill:none;stroke:#0000ff;stroke-width:0.3985;stroke-linecap:butt;stroke-linejoin:miter;stroke-miterlimit:10;stroke-dasharray:none;stroke-opacity:1"
               id="path328"
               inkscape:connector-curvature="0" />
          </g>
          <g
             id="g330">
            <path
               d="m 53.51378,-27.33174 9.37142,-14.82201 c 1.17733,-1.86216 2.15652,-5.15582 2.18708,-7.35665 l 0.01648,-1.16794 c 0.03056,-2.20084 -1.49469,-4.8799 -3.40681,-5.98392 L 18.22899,-81.75029 c -1.91213,-1.10402 -5.22109,-1.68884 -7.3909,-1.30627 l -49.42955,8.71647 c -2.16982,0.38259 -5.0808,2.06561 -6.50195,3.75922 l -32.24563,38.42839 c -1.42116,1.69358 -2.57321,4.85065 -2.57321,7.05159 l 0,50.20178 c 0,2.20094 1.68921,4.5634 3.77301,5.2768 l 10.99343,3.76413 c 2.0838,0.71338 5.52581,0.94949 7.68808,0.52738 l 7.10194,-1.38671 c 2.16226,-0.42211 4.96892,-2.21219 6.26894,-3.99831 l 2.45465,-3.37267 c 1.3,-1.7861 2.20572,-5.01248 2.02295,-7.2064 l -0.01595,-0.18993 c -0.18275,-2.19392 -0.33092,-5.75656 -0.33092,-7.9575 l 0,-21.11536 c 0,-2.20094 1.15206,-5.358 2.57322,-7.05159 l 13.5496,-16.14792 c 1.42116,-1.69359 4.33214,-3.3766 6.50194,-3.75914 l 20.78603,-3.66543 c 2.16981,-0.38254 5.47879,0.2023 7.3909,1.30627 l 18.26409,10.54492 c 1.91213,1.10399 4.93068,3.01809 6.74221,4.27529 l 0.14642,0.10142 c 1.81152,1.2572 5.05536,2.08826 7.24539,1.85622 l 4.17302,-0.44223 c 2.19002,-0.23203 4.91976,-1.92969 6.09708,-3.79187 z"
               style="fill:none;stroke:#000000;stroke-width:0.3985;stroke-linecap:butt;stroke-linejoin:miter;stroke-miterlimit:10;stroke-dasharray:0.3985, 0.99628;stroke-dashoffset:0;stroke-opacity:1"
               id="path332"
               inkscape:connector-curvature="0" />
          </g>
        </g>
      </g>
    </g>
  </g>
</svg>
