<?xml version="1.0" encoding="UTF-8" standalone="no"?>
<!-- Created with Inkscape (http://www.inkscape.org/) -->

<svg
   xmlns:dc="http://purl.org/dc/elements/1.1/"
   xmlns:cc="http://creativecommons.org/ns#"
   xmlns:rdf="http://www.w3.org/1999/02/22-rdf-syntax-ns#"
   xmlns:svg="http://www.w3.org/2000/svg"
   xmlns="http://www.w3.org/2000/svg"
   xmlns:sodipodi="http://sodipodi.sourceforge.net/DTD/sodipodi-0.dtd"
   xmlns:inkscape="http://www.inkscape.org/namespaces/inkscape"
   id="svg2"
   version="1.1"
   inkscape:version="0.91 r13725"
   xml:space="preserve"
   width="497.16449"
   height="102.34875"
   viewBox="0 0 497.16449 102.34875"
   sodipodi:docname="VoronoiTree.svg"><metadata
     id="metadata8"><rdf:RDF><cc:Work
         rdf:about=""><dc:format>image/svg+xml</dc:format><dc:type
           rdf:resource="http://purl.org/dc/dcmitype/StillImage" /><dc:title></dc:title></cc:Work></rdf:RDF></metadata><defs
     id="defs6" /><sodipodi:namedview
     pagecolor="#ffffff"
     bordercolor="#666666"
     borderopacity="1"
     objecttolerance="10"
     gridtolerance="10"
     guidetolerance="10"
     inkscape:pageopacity="0"
     inkscape:pageshadow="2"
     inkscape:window-width="1301"
     inkscape:window-height="744"
     id="namedview4"
     showgrid="false"
     inkscape:zoom="1.4643041"
     inkscape:cx="250.37049"
     inkscape:cy="32.536989"
     inkscape:window-x="65"
     inkscape:window-y="24"
     inkscape:window-maximized="1"
     inkscape:current-layer="g10" /><g
     id="g10"
     inkscape:groupmode="layer"
     inkscape:label="tree-two-rounds"
     transform="matrix(1.25,0,0,-1.25,-52.29925,455.2875)"><g
       id="g12"><path
         d="m 65.2418,335.051 c -6.4888,-6.489 -6.4888,-17.009 0,-23.498 l 11.749,11.749 -11.749,11.749 z"
         style="fill:#a9a9a9;fill-opacity:1;fill-rule:evenodd;stroke:#000000;stroke-width:0.40000001;stroke-linecap:butt;stroke-linejoin:round;stroke-miterlimit:10;stroke-dasharray:none;stroke-opacity:1"
         id="path14"
         inkscape:connector-curvature="0" /></g><g
       id="g16"><g
         id="g18"><path
           d="m 419.596,318.212 c 0,0.994 -0.806,1.8 -1.8,1.8 -0.994,0 -1.8,-0.806 -1.8,-1.8 0,-0.995 0.806,-1.8 1.8,-1.8 0.994,0 1.8,0.805 1.8,1.8"
           style="fill:#000000;fill-opacity:1;fill-rule:evenodd;stroke:none"
           id="path20"
           inkscape:connector-curvature="0" /></g></g><g
       id="g22"><g
         id="g24"><path
           d="m 419.596,318.212 c 0,0.994 -0.806,1.8 -1.8,1.8 -0.994,0 -1.8,-0.806 -1.8,-1.8 0,-0.995 0.806,-1.8 1.8,-1.8 0.994,0 1.8,0.805 1.8,1.8"
           style="fill:#000000;fill-opacity:1;fill-rule:evenodd;stroke:none"
           id="path26"
           inkscape:connector-curvature="0" /></g></g><g
       id="g28"><g
         id="g30"><path
           d="m 419.596,318.212 c 0,0.994 -0.806,1.8 -1.8,1.8 -0.994,0 -1.8,-0.806 -1.8,-1.8 0,-0.995 0.806,-1.8 1.8,-1.8 0.994,0 1.8,0.805 1.8,1.8"
           style="fill:#000000;fill-opacity:1;fill-rule:evenodd;stroke:none"
           id="path32"
           inkscape:connector-curvature="0" /></g></g><g
       id="g34"><path
         d="m 417.796,318.212 -16.305,11.846"
         style="fill:none;stroke:#000000;stroke-width:0.40000001;stroke-linecap:butt;stroke-linejoin:round;stroke-miterlimit:10;stroke-dasharray:none;stroke-opacity:1"
         id="path36"
         inkscape:connector-curvature="0" /></g><g
       id="g38"><path
         d="m 417.796,318.212 -14.251,14.251"
         style="fill:none;stroke:#000000;stroke-width:0.40000001;stroke-linecap:butt;stroke-linejoin:round;stroke-miterlimit:10;stroke-dasharray:none;stroke-opacity:1"
         id="path40"
         inkscape:connector-curvature="0" /></g><g
       id="g42"><path
         d="m 417.796,318.212 -11.847,16.305"
         style="fill:none;stroke:#000000;stroke-width:0.40000001;stroke-linecap:butt;stroke-linejoin:round;stroke-miterlimit:10;stroke-dasharray:none;stroke-opacity:1"
         id="path44"
         inkscape:connector-curvature="0" /></g><g
       id="g46"><g
         id="g48"><path
           d="m 402.691,330.058 c 0,0.663 -0.538,1.2 -1.2,1.2 -0.663,0 -1.2,-0.537 -1.2,-1.2 0,-0.663 0.537,-1.2 1.2,-1.2 0.662,0 1.2,0.537 1.2,1.2"
           style="fill:#000000;fill-opacity:1;fill-rule:evenodd;stroke:none"
           id="path50"
           inkscape:connector-curvature="0" /></g></g><g
       id="g52"><g
         id="g54"><path
           d="m 404.745,332.463 c 0,0.663 -0.538,1.2 -1.2,1.2 -0.663,0 -1.2,-0.537 -1.2,-1.2 0,-0.663 0.537,-1.2 1.2,-1.2 0.662,0 1.2,0.537 1.2,1.2"
           style="fill:#000000;fill-opacity:1;fill-rule:evenodd;stroke:none"
           id="path56"
           inkscape:connector-curvature="0" /></g></g><g
       id="g58"><g
         id="g60"><path
           d="m 407.149,334.517 c 0,0.663 -0.537,1.2 -1.2,1.2 -0.662,0 -1.2,-0.537 -1.2,-1.2 0,-0.663 0.538,-1.2 1.2,-1.2 0.663,0 1.2,0.537 1.2,1.2"
           style="fill:#000000;fill-opacity:1;fill-rule:evenodd;stroke:none"
           id="path62"
           inkscape:connector-curvature="0" /></g></g><g
       id="g64"><g
         id="g66"><path
           d="m 435.302,330.058 c 0,0.663 -0.538,1.2 -1.2,1.2 -0.663,0 -1.2,-0.537 -1.2,-1.2 0,-0.663 0.537,-1.2 1.2,-1.2 0.662,0 1.2,0.537 1.2,1.2"
           style="fill:#000000;fill-opacity:1;fill-rule:evenodd;stroke:none"
           id="path68"
           inkscape:connector-curvature="0" /></g></g><g
       id="g70"><g
         id="g72"><path
           d="m 433.248,332.463 c 0,0.663 -0.538,1.2 -1.2,1.2 -0.663,0 -1.2,-0.537 -1.2,-1.2 0,-0.663 0.537,-1.2 1.2,-1.2 0.662,0 1.2,0.537 1.2,1.2"
           style="fill:#000000;fill-opacity:1;fill-rule:evenodd;stroke:none"
           id="path74"
           inkscape:connector-curvature="0" /></g></g><g
       id="g76"><g
         id="g78"><path
           d="m 430.843,334.517 c 0,0.663 -0.537,1.2 -1.2,1.2 -0.663,0 -1.2,-0.537 -1.2,-1.2 0,-0.663 0.537,-1.2 1.2,-1.2 0.663,0 1.2,0.537 1.2,1.2"
           style="fill:#000000;fill-opacity:1;fill-rule:evenodd;stroke:none"
           id="path80"
           inkscape:connector-curvature="0" /></g></g><g
       id="g82"><g
         id="g84"><path
           d="m 421.609,338.118 c 0,0.364 -0.296,0.66 -0.66,0.66 -0.365,0 -0.66,-0.296 -0.66,-0.66 0,-0.365 0.295,-0.66 0.66,-0.66 0.364,0 0.66,0.295 0.66,0.66"
           style="fill:#000000;fill-opacity:1;fill-rule:evenodd;stroke:none"
           id="path86"
           inkscape:connector-curvature="0" /></g></g><g
       id="g88"><g
         id="g90"><path
           d="m 418.456,338.366 c 0,0.365 -0.295,0.66 -0.66,0.66 -0.364,0 -0.66,-0.295 -0.66,-0.66 0,-0.364 0.296,-0.66 0.66,-0.66 0.365,0 0.66,0.296 0.66,0.66"
           style="fill:#000000;fill-opacity:1;fill-rule:evenodd;stroke:none"
           id="path92"
           inkscape:connector-curvature="0" /></g></g><g
       id="g94"><g
         id="g96"><path
           d="m 415.303,338.118 c 0,0.364 -0.295,0.66 -0.66,0.66 -0.364,0 -0.66,-0.296 -0.66,-0.66 0,-0.365 0.296,-0.66 0.66,-0.66 0.365,0 0.66,0.295 0.66,0.66"
           style="fill:#000000;fill-opacity:1;fill-rule:evenodd;stroke:none"
           id="path98"
           inkscape:connector-curvature="0" /></g></g><g
       id="g100"><path
         d="m 417.796,318.212 11.847,16.305"
         style="fill:none;stroke:#000000;stroke-width:0.40000001;stroke-linecap:butt;stroke-linejoin:round;stroke-miterlimit:10;stroke-dasharray:none;stroke-opacity:1"
         id="path102"
         inkscape:connector-curvature="0" /></g><g
       id="g104"><path
         d="m 417.796,318.212 14.252,14.251"
         style="fill:none;stroke:#000000;stroke-width:0.40000001;stroke-linecap:butt;stroke-linejoin:round;stroke-miterlimit:10;stroke-dasharray:none;stroke-opacity:1"
         id="path106"
         inkscape:connector-curvature="0" /></g><g
       id="g108"><path
         d="m 417.796,318.212 16.306,11.846"
         style="fill:none;stroke:#000000;stroke-width:0.40000001;stroke-linecap:butt;stroke-linejoin:round;stroke-miterlimit:10;stroke-dasharray:none;stroke-opacity:1"
         id="path110"
         inkscape:connector-curvature="0" /></g><g
       id="g112"><g
         id="g114"><path
           d="m 409.846,336.169 c 0,0.663 -0.537,1.2 -1.2,1.2 -0.663,0 -1.2,-0.537 -1.2,-1.2 0,-0.662 0.537,-1.2 1.2,-1.2 0.663,0 1.2,0.538 1.2,1.2"
           style="fill:#000000;fill-opacity:1;fill-rule:evenodd;stroke:none"
           id="path116"
           inkscape:connector-curvature="0" /></g></g><g
       id="g118"><g
         id="g120"><path
           d="m 78.7917,323.302 c 0,0.994 -0.8058,1.8 -1.8,1.8 -0.9941,0 -1.8,-0.806 -1.8,-1.8 0,-0.994 0.8059,-1.8 1.8,-1.8 0.9942,0 1.8,0.806 1.8,1.8"
           style="fill:#000000;fill-opacity:1;fill-rule:evenodd;stroke:none"
           id="path122"
           inkscape:connector-curvature="0" /></g></g><g
       id="g124"><g
         id="g126"><path
           d="m 109.858,338.133 c 0,0.994 -0.806,1.8 -1.8,1.8 -0.995,0 -1.8,-0.806 -1.8,-1.8 0,-0.995 0.805,-1.8 1.8,-1.8 0.994,0 1.8,0.805 1.8,1.8"
           style="fill:#000000;fill-opacity:1;fill-rule:evenodd;stroke:none"
           id="path128"
           inkscape:connector-curvature="0" /></g></g><g
       id="g130"><g
         id="g132"><path
           d="m 139.518,338.133 c 0,0.994 -0.806,1.8 -1.8,1.8 -0.994,0 -1.8,-0.806 -1.8,-1.8 0,-0.995 0.806,-1.8 1.8,-1.8 0.994,0 1.8,0.805 1.8,1.8"
           style="fill:#000000;fill-opacity:1;fill-rule:evenodd;stroke:none"
           id="path134"
           inkscape:connector-curvature="0" /></g></g><g
       id="g136"><g
         id="g138"><path
           d="m 198.839,338.133 c 0,0.994 -0.806,1.8 -1.8,1.8 -0.994,0 -1.8,-0.806 -1.8,-1.8 0,-0.995 0.806,-1.8 1.8,-1.8 0.994,0 1.8,0.805 1.8,1.8"
           style="fill:#000000;fill-opacity:1;fill-rule:evenodd;stroke:none"
           id="path140"
           inkscape:connector-curvature="0" /></g></g><g
       id="g142"><g
         id="g144"><path
           d="m 317.481,338.133 c 0,0.994 -0.806,1.8 -1.8,1.8 -0.994,0 -1.8,-0.806 -1.8,-1.8 0,-0.995 0.806,-1.8 1.8,-1.8 0.994,0 1.8,0.805 1.8,1.8"
           style="fill:#000000;fill-opacity:1;fill-rule:evenodd;stroke:none"
           id="path146"
           inkscape:connector-curvature="0" /></g></g><g
       id="g148"><path
         d="m 303.932,349.881 c 6.489,6.489 17.009,6.489 23.498,0 l -11.749,-11.749 -11.749,11.749 z"
         style="fill:none;stroke:#000000;stroke-width:0.40000001;stroke-linecap:butt;stroke-linejoin:round;stroke-miterlimit:10;stroke-dasharray:none;stroke-opacity:1"
         id="path150"
         inkscape:connector-curvature="0" /></g><g
       id="g152"><path
         d="m 185.29,349.881 c 6.489,6.489 17.009,6.489 23.498,0 l -11.749,-11.749 -11.749,11.749 z"
         style="fill:none;stroke:#000000;stroke-width:0.40000001;stroke-linecap:butt;stroke-linejoin:round;stroke-miterlimit:10;stroke-dasharray:none;stroke-opacity:1"
         id="path154"
         inkscape:connector-curvature="0" /></g><g
       id="g156"><path
         d="m 125.969,349.881 c 6.489,6.489 17.009,6.489 23.498,0 l -11.749,-11.749 -11.749,11.749 z"
         style="fill:none;stroke:#000000;stroke-width:0.40000001;stroke-linecap:butt;stroke-linejoin:round;stroke-miterlimit:10;stroke-dasharray:none;stroke-opacity:1"
         id="path158"
         inkscape:connector-curvature="0" /></g><g
       id="g160"><path
         d="m 96.3082,349.881 c 6.4888,6.489 17.0088,6.489 23.4978,0 l -11.749,-11.749 -11.7488,11.749 z"
         style="fill:none;stroke:#000000;stroke-width:0.40000001;stroke-linecap:butt;stroke-linejoin:round;stroke-miterlimit:10;stroke-dasharray:none;stroke-opacity:1"
         id="path162"
         inkscape:connector-curvature="0" /></g><g
       id="g164"><path
         d="m 315.681,338.133 -207.623,0 -14.8307,-14.831"
         style="fill:none;stroke:#000000;stroke-width:0.40000001;stroke-linecap:butt;stroke-linejoin:round;stroke-miterlimit:10;stroke-dasharray:none;stroke-opacity:1"
         id="path166"
         inkscape:connector-curvature="0" /></g><g
       id="g168"><g
         id="g170"><path
           d="m 124.088,338.133 c 0,0.662 -0.537,1.2 -1.2,1.2 -0.663,0 -1.2,-0.538 -1.2,-1.2 0,-0.663 0.537,-1.2 1.2,-1.2 0.663,0 1.2,0.537 1.2,1.2"
           style="fill:#000000;fill-opacity:1;fill-rule:evenodd;stroke:none"
           id="path172"
           inkscape:connector-curvature="0" /></g></g><g
       id="g174"><g
         id="g176"><path
           d="m 153.748,338.133 c 0,0.662 -0.537,1.2 -1.2,1.2 -0.662,0 -1.2,-0.538 -1.2,-1.2 0,-0.663 0.538,-1.2 1.2,-1.2 0.663,0 1.2,0.537 1.2,1.2"
           style="fill:#000000;fill-opacity:1;fill-rule:evenodd;stroke:none"
           id="path178"
           inkscape:connector-curvature="0" /></g></g><g
       id="g180"><g
         id="g182"><path
           d="m 168.579,338.133 c 0,0.662 -0.538,1.2 -1.2,1.2 -0.663,0 -1.2,-0.538 -1.2,-1.2 0,-0.663 0.537,-1.2 1.2,-1.2 0.662,0 1.2,0.537 1.2,1.2"
           style="fill:#000000;fill-opacity:1;fill-rule:evenodd;stroke:none"
           id="path184"
           inkscape:connector-curvature="0" /></g></g><g
       id="g186"><g
         id="g188"><path
           d="m 183.409,338.133 c 0,0.662 -0.537,1.2 -1.2,1.2 -0.663,0 -1.2,-0.538 -1.2,-1.2 0,-0.663 0.537,-1.2 1.2,-1.2 0.663,0 1.2,0.537 1.2,1.2"
           style="fill:#000000;fill-opacity:1;fill-rule:evenodd;stroke:none"
           id="path190"
           inkscape:connector-curvature="0" /></g></g><g
       id="g192"><g
         id="g194"><path
           d="m 213.069,338.133 c 0,0.662 -0.537,1.2 -1.2,1.2 -0.663,0 -1.2,-0.538 -1.2,-1.2 0,-0.663 0.537,-1.2 1.2,-1.2 0.663,0 1.2,0.537 1.2,1.2"
           style="fill:#000000;fill-opacity:1;fill-rule:evenodd;stroke:none"
           id="path196"
           inkscape:connector-curvature="0" /></g></g><g
       id="g198"><g
         id="g200"><path
           d="m 227.899,338.133 c 0,0.662 -0.537,1.2 -1.2,1.2 -0.662,0 -1.2,-0.538 -1.2,-1.2 0,-0.663 0.538,-1.2 1.2,-1.2 0.663,0 1.2,0.537 1.2,1.2"
           style="fill:#000000;fill-opacity:1;fill-rule:evenodd;stroke:none"
           id="path202"
           inkscape:connector-curvature="0" /></g></g><g
       id="g204"><g
         id="g206"><path
           d="m 242.73,338.133 c 0,0.662 -0.538,1.2 -1.2,1.2 -0.663,0 -1.2,-0.538 -1.2,-1.2 0,-0.663 0.537,-1.2 1.2,-1.2 0.662,0 1.2,0.537 1.2,1.2"
           style="fill:#000000;fill-opacity:1;fill-rule:evenodd;stroke:none"
           id="path208"
           inkscape:connector-curvature="0" /></g></g><g
       id="g210"><g
         id="g212"><path
           d="m 257.729,338.133 c 0,0.662 -0.537,1.2 -1.2,1.2 -0.663,0 -1.2,-0.538 -1.2,-1.2 0,-0.663 0.537,-1.2 1.2,-1.2 0.663,0 1.2,0.537 1.2,1.2"
           style="fill:#000000;fill-opacity:1;fill-rule:evenodd;stroke:none"
           id="path214"
           inkscape:connector-curvature="0" /></g></g><g
       id="g216"><g
         id="g218"><path
           d="m 272.39,338.133 c 0,0.662 -0.537,1.2 -1.2,1.2 -0.663,0 -1.2,-0.538 -1.2,-1.2 0,-0.663 0.537,-1.2 1.2,-1.2 0.663,0 1.2,0.537 1.2,1.2"
           style="fill:#000000;fill-opacity:1;fill-rule:evenodd;stroke:none"
           id="path220"
           inkscape:connector-curvature="0" /></g></g><g
       id="g222"><g
         id="g224"><path
           d="m 287.22,338.133 c 0,0.662 -0.537,1.2 -1.2,1.2 -0.662,0 -1.2,-0.538 -1.2,-1.2 0,-0.663 0.538,-1.2 1.2,-1.2 0.663,0 1.2,0.537 1.2,1.2"
           style="fill:#000000;fill-opacity:1;fill-rule:evenodd;stroke:none"
           id="path226"
           inkscape:connector-curvature="0" /></g></g><g
       id="g228"><g
         id="g230"><path
           d="m 302.051,338.133 c 0,0.662 -0.538,1.2 -1.2,1.2 -0.663,0 -1.2,-0.538 -1.2,-1.2 0,-0.663 0.537,-1.2 1.2,-1.2 0.662,0 1.2,0.537 1.2,1.2"
           style="fill:#000000;fill-opacity:1;fill-rule:evenodd;stroke:none"
           id="path232"
           inkscape:connector-curvature="0" /></g></g><g
       id="g234"><path
         d="m 361.556,329.961 c 6.489,6.489 17.009,6.489 23.498,0 l -11.749,-11.749 -11.749,11.749 z"
         style="fill:none;stroke:#000000;stroke-width:0.40000001;stroke-linecap:butt;stroke-linejoin:round;stroke-miterlimit:10;stroke-dasharray:none;stroke-opacity:1"
         id="path236"
         inkscape:connector-curvature="0" /></g><g
       id="g238"><path
         d="m 397.029,333.073 c 8.208,11.469 24.16,14.113 35.629,5.905 2.426,-1.737 4.528,-3.884 6.213,-6.346"
         style="fill:none;stroke:#000000;stroke-width:0.40000001;stroke-linecap:butt;stroke-linejoin:round;stroke-miterlimit:10;stroke-dasharray:none;stroke-opacity:1"
         id="path240"
         inkscape:connector-curvature="0" /><g
         id="g242"><path
           d="m 438.871,332.632 c -1.862,1.412 -3.909,2.562 -6.083,3.418 l 3.267,2.967 c 1.227,-1.99 2.174,-4.138 2.816,-6.385 z"
           style="fill:#000000;fill-opacity:1;fill-rule:evenodd;stroke:#000000;stroke-width:0.40000001;stroke-linecap:butt;stroke-linejoin:round;stroke-miterlimit:10;stroke-dasharray:none;stroke-opacity:1"
           id="path244"
           inkscape:connector-curvature="0" /></g><g
         id="g246"><path
           d="m 399.979,339.397 c -1.268,-1.963 -2.26,-4.091 -2.95,-6.324 l 0,0 c 1.892,1.373 3.962,2.48 6.155,3.289 l -3.205,3.035 z"
           style="fill:#000000;fill-opacity:1;fill-rule:evenodd;stroke:#000000;stroke-width:0.40000001;stroke-linecap:butt;stroke-linejoin:round;stroke-miterlimit:10;stroke-dasharray:none;stroke-opacity:1"
           id="path248"
           inkscape:connector-curvature="0" /></g></g><g
       id="g250"><path
         d="m 417.795,318.212 -9.149,17.958"
         style="fill:none;stroke:#000000;stroke-width:0.40000001;stroke-linecap:butt;stroke-linejoin:round;stroke-miterlimit:10;stroke-dasharray:none;stroke-opacity:1"
         id="path252"
         inkscape:connector-curvature="0" /></g><g
       id="g254"
       transform="translate(370.458,337.887)"><g
         id="g256"
         transform="translate(0,-787.711)"><text
           transform="matrix(1,0,0,-1,0,787.711)"
           style="font-variant:normal;font-weight:normal;font-size:9.96259975px;font-family:CMMI10;-inkscape-font-specification:CMMI10;writing-mode:lr-tb;fill:#000000;fill-opacity:1;fill-rule:nonzero;stroke:none"
           id="text258"><tspan
             x="0"
             y="0"
             id="tspan260">x</tspan></text>
</g></g><g
       id="g262"><g
         id="g264"><path
           d="m 375.105,318.212 c 0,0.994 -0.806,1.8 -1.8,1.8 -0.994,0 -1.8,-0.806 -1.8,-1.8 0,-0.994 0.806,-1.8 1.8,-1.8 0.994,0 1.8,0.806 1.8,1.8"
           style="fill:#000000;fill-opacity:1;fill-rule:evenodd;stroke:none"
           id="path266"
           inkscape:connector-curvature="0" /></g></g><g
       id="g268"
       transform="translate(388.943,323.096)"><g
         id="g270"
         transform="translate(0,-788.345)"><text
           transform="matrix(1,0,0,-1,0,788.345)"
           style="font-variant:normal;font-weight:normal;font-size:9.96259975px;font-family:CMR10;-inkscape-font-specification:CMR10;writing-mode:lr-tb;fill:#000000;fill-opacity:1;fill-rule:nonzero;stroke:none"
           id="text272"><tspan
             x="0"
             y="0"
             id="tspan274">=</tspan></text>
</g></g><g
       id="g276"
       transform="translate(311.135,357.422)"><g
         id="g278"
         transform="translate(0,-785.192)"><text
           transform="matrix(1,0,0,-1,0,785.192)"
           style="font-variant:normal;font-weight:normal;font-size:9.96259975px;font-family:CMMI10;-inkscape-font-specification:CMMI10;writing-mode:lr-tb;fill:#000000;fill-opacity:1;fill-rule:nonzero;stroke:none"
           id="text280"><tspan
             x="0"
             y="0"
             id="tspan282">N</tspan></text>
</g></g><g
       id="g284"
       transform="translate(192.493,357.422)"><g
         id="g286"
         transform="translate(0,-785.192)"><text
           transform="matrix(1,0,0,-1,0,785.192)"
           style="font-variant:normal;font-weight:normal;font-size:9.96259975px;font-family:CMMI10;-inkscape-font-specification:CMMI10;writing-mode:lr-tb;fill:#000000;fill-opacity:1;fill-rule:nonzero;stroke:none"
           id="text288"><tspan
             x="0"
             y="0"
             id="tspan290">N</tspan></text>
</g></g><g
       id="g292"
       transform="translate(133.172,357.422)"><g
         id="g294"
         transform="translate(0,-785.192)"><text
           transform="matrix(1,0,0,-1,0,785.192)"
           style="font-variant:normal;font-weight:normal;font-size:9.96259975px;font-family:CMMI10;-inkscape-font-specification:CMMI10;writing-mode:lr-tb;fill:#000000;fill-opacity:1;fill-rule:nonzero;stroke:none"
           id="text296"><tspan
             x="0"
             y="0"
             id="tspan298">N</tspan></text>
</g></g><g
       id="g300"
       transform="translate(103.512,357.422)"><g
         id="g302"
         transform="translate(0,-785.192)"><text
           transform="matrix(1,0,0,-1,0,785.192)"
           style="font-variant:normal;font-weight:normal;font-size:9.96259975px;font-family:CMMI10;-inkscape-font-specification:CMMI10;writing-mode:lr-tb;fill:#000000;fill-opacity:1;fill-rule:nonzero;stroke:none"
           id="text304"><tspan
             x="0"
             y="0"
             id="tspan306">N</tspan></text>
</g></g><g
       id="g308"
       transform="translate(120.397,311.877)"><g
         id="g310"
         transform="translate(0,-785.58)"><text
           transform="matrix(1,0,0,-1,0,785.58)"
           style="font-variant:normal;font-weight:normal;font-size:9.96259975px;font-family:CMR10;-inkscape-font-specification:CMR10;writing-mode:lr-tb;fill:#000000;fill-opacity:1;fill-rule:nonzero;stroke:none"
           id="text312"><tspan
             x="0"
             y="0"
             id="tspan314">2</tspan></text>
</g></g><g
       id="g316"
       transform="translate(164.888,311.877)"><g
         id="g318"
         transform="translate(0,-785.58)"><text
           transform="matrix(1,0,0,-1,0,785.58)"
           style="font-variant:normal;font-weight:normal;font-size:9.96259975px;font-family:CMR10;-inkscape-font-specification:CMR10;writing-mode:lr-tb;fill:#000000;fill-opacity:1;fill-rule:nonzero;stroke:none"
           id="text320"><tspan
             x="0"
             y="0"
             id="tspan322">4</tspan></text>
</g></g><g
       id="g324"
       transform="translate(254.039,311.877)"><g
         id="g326"
         transform="translate(0,-785.58)"><text
           transform="matrix(1,0,0,-1,0,785.58)"
           style="font-variant:normal;font-weight:normal;font-size:9.96259975px;font-family:CMR10;-inkscape-font-specification:CMR10;writing-mode:lr-tb;fill:#000000;fill-opacity:1;fill-rule:nonzero;stroke:none"
           id="text328"><tspan
             x="0"
             y="0"
             id="tspan330">8</tspan></text>
</g></g><g
       id="g332"><g
         id="g334"><path
           d="m 109.858,308.472 c 0,0.994 -0.806,1.8 -1.8,1.8 -0.995,0 -1.8,-0.806 -1.8,-1.8 0,-0.994 0.805,-1.8 1.8,-1.8 0.994,0 1.8,0.806 1.8,1.8"
           style="fill:#000000;fill-opacity:1;fill-rule:evenodd;stroke:none"
           id="path336"
           inkscape:connector-curvature="0" /></g></g><g
       id="g338"><g
         id="g340"><path
           d="m 139.518,308.472 c 0,0.994 -0.806,1.8 -1.8,1.8 -0.994,0 -1.8,-0.806 -1.8,-1.8 0,-0.994 0.806,-1.8 1.8,-1.8 0.994,0 1.8,0.806 1.8,1.8"
           style="fill:#000000;fill-opacity:1;fill-rule:evenodd;stroke:none"
           id="path342"
           inkscape:connector-curvature="0" /></g></g><g
       id="g344"><g
         id="g346"><path
           d="m 198.839,308.472 c 0,0.994 -0.806,1.8 -1.8,1.8 -0.994,0 -1.8,-0.806 -1.8,-1.8 0,-0.994 0.806,-1.8 1.8,-1.8 0.994,0 1.8,0.806 1.8,1.8"
           style="fill:#000000;fill-opacity:1;fill-rule:evenodd;stroke:none"
           id="path348"
           inkscape:connector-curvature="0" /></g></g><g
       id="g350"><g
         id="g352"><path
           d="m 317.481,308.472 c 0,0.994 -0.806,1.8 -1.8,1.8 -0.994,0 -1.8,-0.806 -1.8,-1.8 0,-0.994 0.806,-1.8 1.8,-1.8 0.994,0 1.8,0.806 1.8,1.8"
           style="fill:#000000;fill-opacity:1;fill-rule:evenodd;stroke:none"
           id="path354"
           inkscape:connector-curvature="0" /></g></g><g
       id="g356"><path
         d="m 303.932,296.723 c 6.489,-6.489 17.009,-6.489 23.498,0 l -11.749,11.749 -11.749,-11.749 z"
         style="fill:none;stroke:#000000;stroke-width:0.40000001;stroke-linecap:butt;stroke-linejoin:round;stroke-miterlimit:10;stroke-dasharray:none;stroke-opacity:1"
         id="path358"
         inkscape:connector-curvature="0" /></g><g
       id="g360"><path
         d="m 185.29,296.723 c 6.489,-6.489 17.009,-6.489 23.498,0 l -11.749,11.749 -11.749,-11.749 z"
         style="fill:none;stroke:#000000;stroke-width:0.40000001;stroke-linecap:butt;stroke-linejoin:round;stroke-miterlimit:10;stroke-dasharray:none;stroke-opacity:1"
         id="path362"
         inkscape:connector-curvature="0" /></g><g
       id="g364"><path
         d="m 125.969,296.723 c 6.489,-6.489 17.009,-6.489 23.498,0 l -11.749,11.749 -11.749,-11.749 z"
         style="fill:none;stroke:#000000;stroke-width:0.40000001;stroke-linecap:butt;stroke-linejoin:round;stroke-miterlimit:10;stroke-dasharray:none;stroke-opacity:1"
         id="path366"
         inkscape:connector-curvature="0" /></g><g
       id="g368"><path
         d="m 315.681,308.472 -207.623,0 -14.8307,14.83"
         style="fill:none;stroke:#000000;stroke-width:0.40000001;stroke-linecap:butt;stroke-linejoin:round;stroke-miterlimit:10;stroke-dasharray:none;stroke-opacity:1"
         id="path370"
         inkscape:connector-curvature="0" /></g><g
       id="g372"><g
         id="g374"><path
           d="m 124.088,308.472 c 0,0.663 -0.537,1.2 -1.2,1.2 -0.663,0 -1.2,-0.537 -1.2,-1.2 0,-0.663 0.537,-1.2 1.2,-1.2 0.663,0 1.2,0.537 1.2,1.2"
           style="fill:#000000;fill-opacity:1;fill-rule:evenodd;stroke:none"
           id="path376"
           inkscape:connector-curvature="0" /></g></g><g
       id="g378"><g
         id="g380"><path
           d="m 153.748,308.472 c 0,0.663 -0.537,1.2 -1.2,1.2 -0.662,0 -1.2,-0.537 -1.2,-1.2 0,-0.663 0.538,-1.2 1.2,-1.2 0.663,0 1.2,0.537 1.2,1.2"
           style="fill:#000000;fill-opacity:1;fill-rule:evenodd;stroke:none"
           id="path382"
           inkscape:connector-curvature="0" /></g></g><g
       id="g384"><g
         id="g386"><path
           d="m 168.579,308.472 c 0,0.663 -0.538,1.2 -1.2,1.2 -0.663,0 -1.2,-0.537 -1.2,-1.2 0,-0.663 0.537,-1.2 1.2,-1.2 0.662,0 1.2,0.537 1.2,1.2"
           style="fill:#000000;fill-opacity:1;fill-rule:evenodd;stroke:none"
           id="path388"
           inkscape:connector-curvature="0" /></g></g><g
       id="g390"><g
         id="g392"><path
           d="m 183.409,308.472 c 0,0.663 -0.537,1.2 -1.2,1.2 -0.663,0 -1.2,-0.537 -1.2,-1.2 0,-0.663 0.537,-1.2 1.2,-1.2 0.663,0 1.2,0.537 1.2,1.2"
           style="fill:#000000;fill-opacity:1;fill-rule:evenodd;stroke:none"
           id="path394"
           inkscape:connector-curvature="0" /></g></g><g
       id="g396"><g
         id="g398"><path
           d="m 213.069,308.472 c 0,0.663 -0.537,1.2 -1.2,1.2 -0.663,0 -1.2,-0.537 -1.2,-1.2 0,-0.663 0.537,-1.2 1.2,-1.2 0.663,0 1.2,0.537 1.2,1.2"
           style="fill:#000000;fill-opacity:1;fill-rule:evenodd;stroke:none"
           id="path400"
           inkscape:connector-curvature="0" /></g></g><g
       id="g402"><g
         id="g404"><path
           d="m 227.899,308.472 c 0,0.663 -0.537,1.2 -1.2,1.2 -0.662,0 -1.2,-0.537 -1.2,-1.2 0,-0.663 0.538,-1.2 1.2,-1.2 0.663,0 1.2,0.537 1.2,1.2"
           style="fill:#000000;fill-opacity:1;fill-rule:evenodd;stroke:none"
           id="path406"
           inkscape:connector-curvature="0" /></g></g><g
       id="g408"><g
         id="g410"><path
           d="m 242.73,308.472 c 0,0.663 -0.538,1.2 -1.2,1.2 -0.663,0 -1.2,-0.537 -1.2,-1.2 0,-0.663 0.537,-1.2 1.2,-1.2 0.662,0 1.2,0.537 1.2,1.2"
           style="fill:#000000;fill-opacity:1;fill-rule:evenodd;stroke:none"
           id="path412"
           inkscape:connector-curvature="0" /></g></g><g
       id="g414"><g
         id="g416"><path
           d="m 272.39,308.472 c 0,0.663 -0.537,1.2 -1.2,1.2 -0.663,0 -1.2,-0.537 -1.2,-1.2 0,-0.663 0.537,-1.2 1.2,-1.2 0.663,0 1.2,0.537 1.2,1.2"
           style="fill:#000000;fill-opacity:1;fill-rule:evenodd;stroke:none"
           id="path418"
           inkscape:connector-curvature="0" /></g></g><g
       id="g420"><g
         id="g422"><path
           d="m 287.22,308.472 c 0,0.663 -0.537,1.2 -1.2,1.2 -0.662,0 -1.2,-0.537 -1.2,-1.2 0,-0.663 0.538,-1.2 1.2,-1.2 0.663,0 1.2,0.537 1.2,1.2"
           style="fill:#000000;fill-opacity:1;fill-rule:evenodd;stroke:none"
           id="path424"
           inkscape:connector-curvature="0" /></g></g><g
       id="g426"><g
         id="g428"><path
           d="m 302.051,308.472 c 0,0.663 -0.538,1.2 -1.2,1.2 -0.663,0 -1.2,-0.537 -1.2,-1.2 0,-0.663 0.537,-1.2 1.2,-1.2 0.662,0 1.2,0.537 1.2,1.2"
           style="fill:#000000;fill-opacity:1;fill-rule:evenodd;stroke:none"
           id="path430"
           inkscape:connector-curvature="0" /></g></g><g
       id="g432"><path
         d="m 96.3082,296.723 c 6.4888,-6.489 17.0088,-6.489 23.4978,0 l -11.749,11.749 -11.7488,-11.749 z"
         style="fill:none;stroke:#000000;stroke-width:0.40000001;stroke-linecap:butt;stroke-linejoin:round;stroke-miterlimit:10;stroke-dasharray:none;stroke-opacity:1"
         id="path434"
         inkscape:connector-curvature="0" /></g><g
       id="g436"><g
         id="g438"><path
           d="m 257.56,308.472 c 0,0.663 -0.537,1.2 -1.2,1.2 -0.663,0 -1.2,-0.537 -1.2,-1.2 0,-0.663 0.537,-1.2 1.2,-1.2 0.663,0 1.2,0.537 1.2,1.2"
           style="fill:#000000;fill-opacity:1;fill-rule:evenodd;stroke:none"
           id="path440"
           inkscape:connector-curvature="0" /></g></g><g
       id="g442"
       transform="translate(41.8394,319.843)"><g
         id="g444"
         transform="translate(0,-785.081)"><text
           transform="matrix(1,0,0,-1,0,785.081)"
           style="font-variant:normal;font-weight:normal;font-size:9.96259975px;font-family:CMMI10;-inkscape-font-specification:CMMI10;writing-mode:lr-tb;fill:#000000;fill-opacity:1;fill-rule:nonzero;stroke:none"
           id="text446"><tspan
             x="0 5.4953704"
             y="0"
             sodipodi:role="line"
             id="tspan448">kN</tspan></text>
</g></g><g
       id="g450"
       transform="translate(88.9959,328.131)"><g
         id="g452"
         transform="translate(0,-787.711)"><text
           transform="matrix(1,0,0,-1,0,787.711)"
           style="font-variant:normal;font-weight:normal;font-size:9.96259975px;font-family:CMMI10;-inkscape-font-specification:CMMI10;writing-mode:lr-tb;fill:#000000;fill-opacity:1;fill-rule:nonzero;stroke:none"
           id="text454"><tspan
             x="0"
             y="0"
             id="tspan456">c</tspan></text>
</g></g><g
       id="g458"
       transform="translate(311.135,282.351)"><g
         id="g460"
         transform="translate(0,-785.192)"><text
           transform="matrix(1,0,0,-1,0,785.192)"
           style="font-variant:normal;font-weight:normal;font-size:9.96259975px;font-family:CMMI10;-inkscape-font-specification:CMMI10;writing-mode:lr-tb;fill:#000000;fill-opacity:1;fill-rule:nonzero;stroke:none"
           id="text462"><tspan
             x="0"
             y="0"
             id="tspan464">N</tspan></text>
</g></g><g
       id="g466"
       transform="translate(192.493,282.351)"><g
         id="g468"
         transform="translate(0,-785.192)"><text
           transform="matrix(1,0,0,-1,0,785.192)"
           style="font-variant:normal;font-weight:normal;font-size:9.96259975px;font-family:CMMI10;-inkscape-font-specification:CMMI10;writing-mode:lr-tb;fill:#000000;fill-opacity:1;fill-rule:nonzero;stroke:none"
           id="text470"><tspan
             x="0"
             y="0"
             id="tspan472">N</tspan></text>
</g></g><g
       id="g474"
       transform="translate(133.172,282.351)"><g
         id="g476"
         transform="translate(0,-785.192)"><text
           transform="matrix(1,0,0,-1,0,785.192)"
           style="font-variant:normal;font-weight:normal;font-size:9.96259975px;font-family:CMMI10;-inkscape-font-specification:CMMI10;writing-mode:lr-tb;fill:#000000;fill-opacity:1;fill-rule:nonzero;stroke:none"
           id="text478"><tspan
             x="0"
             y="0"
             id="tspan480">N</tspan></text>
</g></g><g
       id="g482"
       transform="translate(103.512,282.351)"><g
         id="g484"
         transform="translate(0,-785.192)"><text
           transform="matrix(1,0,0,-1,0,785.192)"
           style="font-variant:normal;font-weight:normal;font-size:9.96259975px;font-family:CMMI10;-inkscape-font-specification:CMMI10;writing-mode:lr-tb;fill:#000000;fill-opacity:1;fill-rule:nonzero;stroke:none"
           id="text486"><tspan
             x="0"
             y="0"
             id="tspan488">N</tspan></text>
</g></g><g
       id="g490"
       transform="translate(415.103,347.027)"><g
         id="g492"
         transform="translate(0,-787.711)"><text
           transform="matrix(1,0,0,-1,0,787.711)"
           style="font-variant:normal;font-weight:normal;font-size:9.96259975px;font-family:CMMI10;-inkscape-font-specification:CMMI10;writing-mode:lr-tb;fill:#000000;fill-opacity:1;fill-rule:nonzero;stroke:none"
           id="text494"><tspan
             x="0"
             y="0"
             id="tspan496">x</tspan></text>
</g></g><g
       id="g498"><g
         id="g500"><path
           d="m 95.0273,323.302 c 0,0.994 -0.8059,1.8 -1.8,1.8 -0.9941,0 -1.8,-0.806 -1.8,-1.8 0,-0.994 0.8059,-1.8 1.8,-1.8 0.9941,0 1.8,0.806 1.8,1.8"
           style="fill:#000000;fill-opacity:1;fill-rule:evenodd;stroke:none"
           id="path502"
           inkscape:connector-curvature="0" /></g></g><g
       id="g504"><path
         d="m 93.2273,323.302 -16.2355,0"
         style="fill:none;stroke:#000000;stroke-width:0.40000001;stroke-linecap:butt;stroke-linejoin:round;stroke-miterlimit:10;stroke-dasharray:none;stroke-opacity:1"
         id="path506"
         inkscape:connector-curvature="0" /></g><g
       id="g508"
       transform="translate(228.046,347.472)"><g
         id="g510"
         transform="translate(0,-783.144)"><text
           transform="matrix(1,0,0,-1,0,785.081)"
           style="font-variant:normal;font-weight:normal;font-size:9.96259975px;font-family:CMR10;-inkscape-font-specification:CMR10;writing-mode:lr-tb;fill:#000000;fill-opacity:1;fill-rule:nonzero;stroke:none"
           id="text512"><tspan
             x="0 2.7676103 7.1949897 12.17629"
             y="0"
             sodipodi:role="line"
             id="tspan514">legs</tspan></text>
</g></g><g
       id="g516"
       transform="translate(56.1411,344.37)"><g
         id="g518"
         transform="translate(0,-785.081)"><text
           transform="matrix(1,0,0,-1,0,785.081)"
           style="font-variant:normal;font-weight:normal;font-size:9.96259975px;font-family:CMR10;-inkscape-font-specification:CMR10;writing-mode:lr-tb;fill:#000000;fill-opacity:1;fill-rule:nonzero;stroke:none"
           id="text520"><tspan
             x="0 5.5352206 9.9625998 14.9439"
             y="0"
             sodipodi:role="line"
             id="tspan522">head</tspan></text>
</g></g><g
       id="g524"
       transform="translate(75,328.082)"><g
         id="g526"
         transform="translate(0,-785.081)"><text
           transform="matrix(1,0,0,-1,0,785.081)"
           style="font-variant:normal;font-weight:normal;font-size:9.96259975px;font-family:CMMI10;-inkscape-font-specification:CMMI10;writing-mode:lr-tb;fill:#000000;fill-opacity:1;fill-rule:nonzero;stroke:none"
           id="text528"><tspan
             x="0"
             y="0"
             id="tspan530">h</tspan></text>
</g></g></g></svg>